<svg width="187" height="187" viewBox="0 0 187 187" fill="none" xmlns="http://www.w3.org/2000/svg">
<g clip-path="url(#clip0_14:1108)">
<path d="M201 154.606H-14V154.713H201V154.606Z" fill="#EBEBEB"/>
<path d="M179.457 161.516H165.215V161.623H179.457V161.516Z" fill="#EBEBEB"/>
<path d="M128.425 162.684H124.688V162.791H128.425V162.684Z" fill="#EBEBEB"/>
<path d="M164.785 157.53H156.534V157.638H164.785V157.53Z" fill="#EBEBEB"/>
<path d="M27.1295 158.252H8.5578V158.359H27.1295V158.252Z" fill="#EBEBEB"/>
<path d="M33.6827 158.252H30.9608V158.359H33.6827V158.252Z" fill="#EBEBEB"/>
<path d="M82.8145 160.064H42.5321V160.171H82.8145V160.064Z" fill="#EBEBEB"/>
<path d="M87.91 135.452H4.88128C4.23084 135.45 3.60743 135.192 3.1479 134.732C2.68837 134.272 2.43028 133.649 2.43028 132.999V16.4307C2.43594 15.7849 2.69654 15.1673 3.15545 14.7121C3.61437 14.257 4.23455 14.0011 4.88128 14H87.91C88.5612 14 89.1857 14.2584 89.6462 14.7182C90.1066 15.1781 90.3653 15.8019 90.3653 16.4522V132.999C90.3653 133.65 90.1066 134.273 89.6462 134.733C89.1857 135.193 88.5612 135.452 87.91 135.452ZM4.88128 14.0859C4.25935 14.087 3.66329 14.3346 3.22392 14.7742C2.78455 15.2138 2.53778 15.8096 2.53778 16.4307V132.999C2.53778 133.621 2.78455 134.216 3.22392 134.656C3.66329 135.096 4.25935 135.343 4.88128 135.344H87.91C88.5323 135.343 89.1288 135.096 89.5689 134.656C90.0089 134.217 90.2567 133.621 90.2578 132.999V16.4307C90.2567 15.8092 90.0089 15.2134 89.5689 14.7739C89.1288 14.3344 88.5323 14.087 87.91 14.0859H4.88128Z" fill="#EBEBEB"/>
<path d="M180.923 135.452H97.8903C97.2394 135.45 96.6156 135.192 96.1554 134.732C95.6952 134.272 95.4361 133.649 95.435 132.999V16.4307C95.4418 15.7845 95.7033 15.1669 96.1629 14.7119C96.6225 14.2569 97.2431 14.0011 97.8903 14H180.923C181.569 14.0022 182.188 14.2586 182.646 14.7136C183.104 15.1687 183.364 15.7856 183.37 16.4307V132.999C183.37 133.648 183.112 134.271 182.654 134.73C182.195 135.19 181.573 135.449 180.923 135.452ZM97.8903 14.0859C97.268 14.087 96.6714 14.3344 96.2314 14.7739C95.7913 15.2134 95.5436 15.8092 95.5425 16.4307V132.999C95.5436 133.621 95.7913 134.217 96.2314 134.656C96.6714 135.096 97.268 135.343 97.8903 135.344H180.923C181.546 135.343 182.142 135.096 182.582 134.656C183.022 134.217 183.27 133.621 183.271 132.999V16.4307C183.27 15.8092 183.022 15.2134 182.582 14.7739C182.142 14.3344 181.546 14.087 180.923 14.0859H97.8903Z" fill="#EBEBEB"/>
<path d="M72.7139 43.6586H19.1273V97.178H72.7139V43.6586Z" fill="#E6E6E6"/>
<path d="M70.71 45.7802H21.26V95.1682H70.71V45.7802Z" fill="#F0F0F0"/>
<path d="M33.7773 45.7802L21.26 92.6V67.2532L26.9876 45.7802H33.7773Z" fill="#FAFAFA"/>
<path d="M39.3716 45.7802L26.1706 95.1682H23.6809L36.8819 45.7802H39.3716Z" fill="#FAFAFA"/>
<path d="M70.71 59.248V84.5991L67.9064 95.1682H61.1167L70.71 59.248Z" fill="#FAFAFA"/>
<path d="M46.7805 43.6586H45.0605V97.178H46.7805V43.6586Z" fill="#E6E6E6"/>
<path d="M155.171 140.013C155.171 140.013 158.473 133.571 154.698 127.189C150.922 120.807 149.83 119.321 152.234 118.016C154.637 116.71 155.747 123.109 155.747 123.109C155.747 123.109 157.776 118.707 156.099 114.09C154.422 109.474 153.373 101.979 155.669 101.176C157.966 100.373 156.099 110.534 158.09 114C158.09 114 159.759 110.135 160.034 106.442C160.309 102.748 159.879 96.8345 161.685 95.3185C163.491 93.8025 164.648 94.8504 162.876 103.019C161.81 107.883 161.22 112.84 161.113 117.818C161.113 117.818 165.035 107.107 167.666 106.798C170.298 106.489 170.294 109.955 168.041 112.961C165.787 115.967 161.444 121.357 160.731 124.127C160.731 124.127 165.031 116.066 168.901 118.544C172.771 121.022 165.529 125.879 162.3 127.64C159.071 129.401 156.83 140.425 156.83 140.425L155.171 140.013Z" fill="#E0E0E0"/>
<path d="M157.776 142.662C157.776 142.662 154.56 136.16 158.43 129.843C162.3 123.525 163.405 122.044 161.01 120.704C158.615 119.364 157.432 125.75 157.432 125.75C157.432 125.75 155.463 121.322 157.2 116.731C158.937 112.14 160.085 104.659 157.811 103.826C155.536 102.993 157.247 113.18 155.231 116.615C155.231 116.615 153.614 112.75 153.39 109.035C153.167 105.321 153.67 99.4284 151.885 97.8909C150.101 96.3534 148.927 97.3841 150.595 105.57C151.595 110.449 152.118 115.414 152.156 120.395C152.156 120.395 148.381 109.632 145.754 109.285C143.126 108.937 143.083 112.407 145.293 115.443C147.504 118.479 151.778 123.929 152.453 126.712C152.453 126.712 148.26 118.595 144.352 121.013C140.443 123.431 147.624 128.396 150.828 130.199C154.031 132.003 156.125 143.057 156.125 143.057L157.776 142.662Z" fill="#E6E6E6"/>
<path d="M142.937 138.028H169.52L167.365 155.065H145.087L142.937 138.028Z" fill="#F0F0F0"/>
<path opacity="0.3" d="M166.51 32.3766H55.2257C54.3827 32.3766 53.6992 33.0592 53.6992 33.9012V112.677C53.6992 113.519 54.3827 114.202 55.2257 114.202H166.51C167.353 114.202 168.036 113.519 168.036 112.677V33.9012C168.036 33.0592 167.353 32.3766 166.51 32.3766Z" fill="white"/>
<path d="M93.5 174C139.545 174 176.873 171.823 176.873 169.138C176.873 166.454 139.545 164.277 93.5 164.277C47.4545 164.277 10.1273 166.454 10.1273 169.138C10.1273 171.823 47.4545 174 93.5 174Z" fill="#F5F5F5"/>
<path d="M66.8572 130.813L66.7024 137.5L65.9972 167.747H63.6709L62.97 137.5L62.8152 130.813H66.8572Z" fill="#DEDEDE"/>
<path opacity="0.4" d="M66.8572 130.813L66.7024 137.5L65.9972 167.747H63.6709L62.97 137.5L62.8152 130.813H66.8572Z" fill="white"/>
<path opacity="0.2" d="M66.8572 130.813L66.7024 137.685H62.97L62.8152 130.813H66.8572Z" fill="black"/>
<path d="M79.4906 167.64L77.3406 131.286H73.8275L76.8375 167.64H79.4906Z" fill="#DEDEDE"/>
<path opacity="0.5" d="M76.8289 167.64H79.4863L77.5341 134.55L77.3406 131.243H73.8275L74.0984 134.55L76.8289 167.64Z" fill="white"/>
<path opacity="0.2" d="M73.8275 131.243L74.0984 134.679H77.5341L77.3406 131.243H73.8275Z" fill="black"/>
<path d="M52.8349 167.64L55.8406 131.286H52.3275L50.1818 167.64H52.8349Z" fill="#DEDEDE"/>
<path opacity="0.5" d="M52.8393 167.64L55.5698 134.55L55.8407 131.243H52.3276L52.1341 134.55L50.1862 167.64H52.8393Z" fill="white"/>
<path opacity="0.2" d="M55.8406 131.243L55.5697 134.679H52.134L52.3275 131.243H55.8406Z" fill="black"/>
<path d="M52.5984 127.519H77.074C77.6443 127.519 78.1911 127.746 78.5943 128.148C78.9975 128.551 79.224 129.097 79.224 129.667V132.531H50.4484V129.658C50.4507 129.09 50.6782 128.546 51.0812 128.145C51.4841 127.744 52.0297 127.519 52.5984 127.519Z" fill="#DEDEDE"/>
<path d="M79.7357 130.032H49.9324C49.4551 130.032 49.0681 130.418 49.0681 130.895V131.677C49.0681 132.153 49.4551 132.54 49.9324 132.54H79.7357C80.2131 132.54 80.6 132.153 80.6 131.677V130.895C80.6 130.418 80.2131 130.032 79.7357 130.032Z" fill="#DEDEDE"/>
<path opacity="0.6" d="M79.7357 130.032H49.9324C49.4551 130.032 49.0681 130.418 49.0681 130.895V131.677C49.0681 132.153 49.4551 132.54 49.9324 132.54H79.7357C80.2131 132.54 80.6 132.153 80.6 131.677V130.895C80.6 130.418 80.2131 130.032 79.7357 130.032Z" fill="white"/>
<path d="M89.9525 72.4067H115.684C116.144 72.4067 116.514 73.008 116.514 73.751V97.6934C116.514 98.4321 116.144 99.0333 115.684 99.0333H89.974C89.7805 99.0333 89.63 98.7628 89.6515 98.4536C90.0815 92.7933 95.392 82.134 95.392 82.134L90.0127 76.0615C89.7503 75.7215 89.6149 75.3008 89.63 74.8718V72.9135C89.63 72.6429 89.7762 72.4067 89.9525 72.4067Z" fill="#DEDEDE"/>
<path opacity="0.8" d="M89.9525 72.4067H115.684C116.144 72.4067 116.514 73.008 116.514 73.751V97.6934C116.514 98.4321 116.144 99.0333 115.684 99.0333H89.974C89.7805 99.0333 89.63 98.7628 89.6515 98.4536C90.0815 92.7933 95.392 82.134 95.392 82.134L90.0127 76.0615C89.7503 75.7215 89.6149 75.3008 89.63 74.8718V72.9135C89.63 72.6429 89.7762 72.4067 89.9525 72.4067Z" fill="white"/>
<path opacity="0.2" d="M89.7375 72.4067L118.87 91.2171V72.4067H89.7375Z" fill="black"/>
<path d="M105.871 72.4067H122.998C123.458 72.4067 123.828 73.008 123.828 73.751V97.6934C123.828 98.4321 123.458 99.0333 122.998 99.0333H105.897C105.703 99.0333 105.549 98.7628 105.574 98.4536C106.004 92.7933 111.311 82.134 111.311 82.134L105.931 76.0615C105.671 75.7205 105.536 75.3005 105.549 74.8718V72.9135C105.54 72.6429 105.695 72.4067 105.871 72.4067Z" fill="#DEDEDE"/>
<path opacity="0.7" d="M105.871 72.4067H122.998C123.458 72.4067 123.828 73.008 123.828 73.751V97.6934C123.828 98.4321 123.458 99.0333 122.998 99.0333H105.897C105.703 99.0333 105.549 98.7628 105.574 98.4536C106.004 92.7933 111.311 82.134 111.311 82.134L105.931 76.0615C105.671 75.7205 105.536 75.3005 105.549 74.8718V72.9135C105.54 72.6429 105.695 72.4067 105.871 72.4067Z" fill="white"/>
<path d="M101.025 84.6464H105.596L104.306 87.5452H99.735L101.025 84.6464Z" fill="#DEDEDE"/>
<path d="M98.015 84.6464H81.46L83.18 87.5452H99.735L98.015 84.6464Z" fill="#DEDEDE"/>
<path d="M76.6569 81.6831C76.6569 81.6831 86.2975 80.3947 91.8875 80.7941C97.4775 81.1935 97.7226 88.7262 97.7226 88.7262L92.9625 89.2115C92.9625 89.2115 92.21 86.5789 90.5975 85.72C88.985 84.8611 75.6808 89.0999 75.6808 89.0999L76.6569 81.6831Z" fill="#DEDEDE"/>
<path opacity="0.4" d="M97.7226 88.7262L92.9625 89.2115C92.9625 89.2115 92.21 86.5789 90.5975 85.72C89.4494 85.1102 82.3759 87.0814 78.3984 88.2667C76.786 88.7477 75.6808 89.0999 75.6808 89.0999L76.3302 84.1696L76.6569 81.6831C76.6569 81.6831 86.2975 80.3947 91.8875 80.7941C97.4775 81.1935 97.7226 88.7262 97.7226 88.7262Z" fill="black"/>
<path d="M104.302 87.5452H83.18V98.9688H104.302V87.5452Z" fill="#DEDEDE"/>
<path opacity="0.2" d="M88.125 87.5452H83.18V98.9688H88.125V87.5452Z" fill="black"/>
<path d="M107.316 85.9347H91.135L88.125 87.5452H104.306L107.316 85.9347Z" fill="#DEDEDE"/>
<path d="M81.03 85.9347H85.975L88.125 87.5452H83.18L81.03 85.9347Z" fill="#DEDEDE"/>
<path opacity="0.2" d="M107.316 85.9347H91.135L88.125 87.5452H104.306L107.316 85.9347Z" fill="black"/>
<path opacity="0.3" d="M81.03 85.9347H85.975L88.125 87.5452H83.18L81.03 85.9347Z" fill="black"/>
<path opacity="0.2" d="M78.3984 88.2667C76.7859 88.7477 75.6808 89.0999 75.6808 89.0999L76.3302 84.1697C77.2917 85.3805 77.9955 86.7747 78.3984 88.2667Z" fill="black"/>
<path d="M104.826 152.463L101.997 153.145L100.565 149.246L99.2664 145.699L102.487 144.329L103.725 148.632L104.826 152.463Z" fill="#E4897B"/>
<path d="M101.309 152.952C101.244 152.639 105.132 151.964 105.132 151.964C105.132 151.964 108.064 153.79 110.485 153.777C112.906 153.764 111.956 155.443 109.397 156.061L103.068 157.582C101.24 158.02 102.014 156.199 101.309 152.952Z" fill="#2E353A"/>
<path d="M105.699 152.252C105.699 152.252 105.862 150.719 106.654 150.886C107.565 151.075 105.699 152.252 105.699 152.252ZM105.699 152.252C105.699 152.252 107.307 151.342 107.6 151.904C108.047 152.75 105.699 152.252 105.699 152.252Z" stroke="#DEDEDE" stroke-width="0.48312" stroke-linecap="round" stroke-linejoin="round"/>
<path opacity="0.2" d="M103.725 148.632L100.565 149.246L99.2664 145.699L102.487 144.329L103.725 148.632Z" fill="black"/>
<path d="M80.8838 163.607L78.0673 162.886L78.6091 158.849L79.1122 155.147L82.5995 155.46L81.6922 159.772L80.8838 163.607Z" fill="#E4897B"/>
<path d="M77.3062 162.752C77.3062 162.43 81.2536 162.731 81.2536 162.731C81.2536 162.731 83.6487 165.222 85.9836 165.802C88.3185 166.381 86.9984 167.777 84.3668 167.747L77.8609 167.67C76.0033 167.644 77.1901 166.068 77.3062 162.752Z" fill="#2E353A"/>
<path d="M81.7352 163.152C81.7352 163.152 82.2684 161.705 82.9951 162.057C83.8551 162.465 81.7352 163.152 81.7352 163.152ZM81.7352 163.152C81.7352 163.152 83.5154 162.662 83.6659 163.276C83.8895 164.208 81.7352 163.152 81.7352 163.152Z" stroke="#DEDEDE" stroke-width="0.48312" stroke-linecap="round" stroke-linejoin="round"/>
<path opacity="0.2" d="M81.6707 159.862L78.5919 158.926L79.1036 155.185L82.5909 155.477L81.6707 159.862Z" fill="black"/>
<path d="M103.442 146.57L99.52 148.026C99.52 148.026 89.0581 121.902 86.9081 121.829C84.7581 121.756 62.8668 131.771 57.38 126.197C51.8932 120.622 59.8267 107.193 59.8267 107.193C59.8267 107.193 73.0234 105.312 74.0167 108.288C74.2612 109.165 74.4479 110.058 74.5757 110.959C74.7262 111.87 74.8294 112.634 74.8294 112.634C75.2594 112.531 88.4862 109.117 93.7064 112.634C99.0169 116.212 103.442 146.57 103.442 146.57Z" fill="#2E353A"/>
<path d="M60.1449 105.149L59.8267 107.202L74.0167 108.292L74.3908 105.87L60.1449 105.149Z" fill="#2E353A"/>
<path opacity="0.2" d="M60.1449 105.149L59.8267 107.202L74.0167 108.292L74.3908 105.87L60.1449 105.149Z" fill="black"/>
<path d="M64.9871 105.013L64.2856 104.941L63.9184 108.508L64.6199 108.58L64.9871 105.013Z" fill="#2E353A"/>
<path d="M71.0658 105.872L67.959 105.672L67.8075 108.025L70.9143 108.225L71.0658 105.872Z" fill="white"/>
<path d="M73.7083 105.394L73.0068 105.322L72.6396 108.889L73.3411 108.961L73.7083 105.394Z" fill="#2E353A"/>
<path d="M97.8989 146.579L103.614 144.638L103.854 146.978L99.5243 148.507L97.8989 146.579Z" fill="#DEDEDE"/>
<path d="M66.84 127.541C66.84 127.541 67.7344 127.541 81.5761 126.914C81.5761 126.914 79.5078 144.2 78.3769 157.139L82.5178 157.844C82.5178 157.844 92.4078 130.135 92.3003 125.733C92.1928 121.331 87.1403 120.042 87.1403 120.042C87.1403 120.042 77.2976 125.733 66.84 127.541Z" fill="#2E353A"/>
<path opacity="0.3" d="M66.84 127.541C66.84 127.541 67.7344 127.541 81.5761 126.914C81.5761 126.914 79.5078 144.2 78.3769 157.139L82.5178 157.844C82.5178 157.844 92.4078 130.135 92.3003 125.733C92.1928 121.331 87.1403 120.042 87.1403 120.042C87.1403 120.042 77.2976 125.733 66.84 127.541Z" fill="black"/>
<path d="M77.7921 155.885L83.481 156.53L82.3802 158.758L77.7749 158.17L77.7921 155.885Z" fill="#DEDEDE"/>
<path opacity="0.3" d="M74.8294 112.639L67.0894 114.245C67.0894 114.245 71.355 111.891 74.5542 110.964C74.7262 111.874 74.8294 112.639 74.8294 112.639Z" fill="black"/>
<path d="M60.1449 105.149C60.1449 105.149 59.53 93.0209 56.95 86.6906C56.95 86.6906 62.9356 82.396 76.6569 81.6831C76.6569 81.6831 78.2909 95.9541 74.3951 105.87C74.3951 105.87 69.1448 106.115 60.1449 105.149Z" fill="#DEDEDE"/>
<path opacity="0.3" d="M60.1449 105.149C60.1449 105.149 59.53 93.0209 56.95 86.6906C56.95 86.6906 62.9356 82.396 76.6569 81.6831C76.6569 81.6831 78.2909 95.9541 74.3951 105.87C74.3951 105.87 69.1448 106.115 60.1449 105.149Z" fill="black"/>
<g opacity="0.7">
<path opacity="0.7" d="M76.7945 83.2419C71.2045 85.2132 62.6819 86.974 57.4144 87.966C57.5047 88.2366 57.5907 88.5157 57.6724 88.7949C62.8969 87.8243 71.2217 86.1107 76.8547 84.1395C76.8375 83.8045 76.816 83.5082 76.7945 83.2419Z" fill="white"/>
<path opacity="0.7" d="M76.9794 87.0685C71.097 89.3962 62.7163 90.7361 58.3303 91.3159C58.3948 91.5993 58.4593 91.8827 58.5195 92.1748C62.884 91.6036 71.0368 90.3023 77.0095 88.0004C76.988 87.674 76.9837 87.3691 76.9794 87.0685Z" fill="white"/>
<path opacity="0.7" d="M76.9407 91.7324C71.0885 93.3901 63.1163 94.3092 58.9926 94.7387C59.0399 95.0264 59.0872 95.3098 59.1302 95.5976C63.2324 95.2025 70.9981 94.3092 76.8977 92.6558C76.9149 92.3208 76.9278 92.0159 76.9407 91.7324Z" fill="white"/>
<path opacity="0.7" d="M76.558 96.6326C71.9269 97.659 63.6924 98.14 59.5172 98.3504C59.5516 98.6424 59.586 98.9259 59.6204 99.2093C63.7441 99.0289 71.6603 98.5651 76.4419 97.5559C76.4849 97.241 76.5236 96.9332 76.558 96.6326Z" fill="white"/>
<path opacity="0.7" d="M75.4401 102.593C75.5218 102.297 75.5949 102.005 75.6637 101.704C70.4392 102.224 63.4345 101.992 59.8827 101.816C59.9128 102.121 59.9386 102.413 59.9601 102.675C61.8994 102.774 64.7933 102.881 67.8721 102.881C70.422 102.898 73.0923 102.817 75.4401 102.593Z" fill="white"/>
</g>
<path d="M64.4535 84.058C63.9977 85.5353 67.528 87.4378 69.5748 87.5452C71.6216 87.6526 72.0043 84.612 70.9981 83.8132C69.5275 82.6407 64.7975 82.9285 64.4535 84.058Z" fill="#DEDEDE"/>
<path opacity="0.4" d="M64.4535 84.058C63.9977 85.5353 67.528 87.4378 69.5748 87.5452C71.6216 87.6526 72.0043 84.612 70.9981 83.8132C69.5275 82.6407 64.7975 82.9285 64.4535 84.058Z" fill="black"/>
<path d="M75.1046 73.5964C75.1046 73.5964 77.1987 65.6299 68.6073 66.025C60.0159 66.4201 61.9509 79.7291 67.27 78.9088C72.5891 78.0885 75.1046 73.5964 75.1046 73.5964Z" fill="#2E353A"/>
<path d="M69.5404 86.7421C66.8744 87.0685 65.3393 84.131 65.3393 84.131C67.8548 82.4131 66.5863 78.548 66.5863 78.548L70.6283 79.9652C70.4423 80.5263 70.2985 81.1005 70.1983 81.683C69.7683 84.204 70.9121 84.4015 70.9121 84.4015C71.0093 84.6444 71.0497 84.9063 71.0301 85.1672C71.0106 85.4281 70.9317 85.6811 70.7994 85.9068C70.667 86.1326 70.4848 86.3252 70.2667 86.47C70.0485 86.6147 69.8001 86.7078 69.5404 86.7421Z" fill="#E4897B"/>
<path opacity="0.2" d="M70.6283 79.9609C70.4423 80.522 70.2986 81.0963 70.1983 81.6788C68.2633 80.9058 66.5906 78.5394 66.5906 78.5394L70.6283 79.9609Z" fill="black"/>
<path d="M70.4993 67.9403C74.1543 68.2538 75.1605 70.3109 75.1046 74.0901C75.0358 78.8142 73.7028 82.0652 69.2222 80.6695C63.1377 78.7755 64.4363 67.4206 70.4993 67.9403Z" fill="#E4897B"/>
<path d="M72.7611 73.6951C73.005 74.2653 73.3184 74.8033 73.6942 75.297C73.574 75.4378 73.4175 75.5431 73.2416 75.6013C73.0657 75.6596 72.8773 75.6687 72.6966 75.6276L72.7611 73.6951Z" fill="#DE5753"/>
<path d="M70.5508 73.1926C70.5508 73.4932 70.353 73.7295 70.1553 73.7166C69.9575 73.7037 69.807 73.4503 69.8242 73.1497C69.8414 72.8491 70.0219 72.6171 70.224 72.63C70.4261 72.6429 70.568 72.8963 70.5508 73.1926Z" fill="#2E353A"/>
<path d="M70.1381 72.6388L70.8089 72.4238C70.8089 72.4238 70.4477 72.9527 70.1381 72.6388Z" fill="#2E353A"/>
<path d="M74.292 73.3644C74.292 73.665 74.0942 73.8969 73.8963 73.8841C73.6985 73.8712 73.548 73.6221 73.5652 73.3215C73.5824 73.0208 73.763 72.7846 73.9608 72.7975C74.1587 72.8104 74.3092 73.0638 74.292 73.3644Z" fill="#2E353A"/>
<path d="M73.8791 72.8063L74.5499 72.5913C74.5499 72.5913 74.1887 73.1245 73.8791 72.8063Z" fill="#2E353A"/>
<path d="M70.7315 70.6889C70.4451 70.6311 70.1492 70.6397 69.8666 70.7143C69.5841 70.7889 69.3224 70.9273 69.1018 71.1189" stroke="#2E353A" stroke-width="0.72468" stroke-linecap="round" stroke-linejoin="round"/>
<path d="M73.3975 70.7447C73.6532 70.704 73.9147 70.7215 74.1626 70.7959C74.4106 70.8704 74.6385 70.9999 74.8294 71.1747" stroke="#2E353A" stroke-width="0.72468" stroke-linecap="round" stroke-linejoin="round"/>
<path d="M72.0387 77.0062C71.8314 77.4036 71.6532 77.8156 71.5055 78.2387L71.269 78.1958C70.2156 77.9982 69.7942 77.5559 69.6437 77.1307C69.5741 76.9204 69.5579 76.6961 69.5964 76.4779C69.6103 76.3533 69.6437 76.2315 69.6953 76.1172C70.2907 76.5292 70.9684 76.8076 71.6818 76.9332C71.8968 76.9847 72.0387 77.0062 72.0387 77.0062Z" fill="#2E353A"/>
<path d="M71.6818 76.9332L71.5141 77.2939C70.5208 77.1049 69.85 76.8387 69.5963 76.4779C69.6102 76.3533 69.6436 76.2315 69.6952 76.1172C70.2907 76.5292 70.9684 76.8076 71.6818 76.9332Z" fill="white"/>
<path d="M71.269 78.1958C70.2155 77.9982 69.7941 77.5559 69.6436 77.1307C70.0429 77.2132 70.4244 77.3659 70.7702 77.5817C70.9968 77.7291 71.1713 77.9439 71.269 78.1958Z" fill="#DE5753"/>
<path d="M65.98 73.7466C65.98 73.7466 67.9451 70.8949 67.8849 68.563C67.8849 68.563 75.3755 66.231 75.1046 73.5963C75.1046 73.5963 76.3688 67.1543 70.1037 66.4586C63.8386 65.7629 63.0775 74.949 66.0832 77.9596C66.0832 77.9596 64.7631 75.5288 65.98 73.7466Z" fill="#2E353A"/>
<path d="M66.5089 74.554C66.5089 74.1291 66.3408 73.7214 66.0412 73.4197C65.7416 73.1181 65.3347 72.9469 64.9093 72.9435C63.7698 72.9692 63.0302 75.2454 65.7951 76.0442C66.195 76.173 66.4573 75.7994 66.5089 74.554Z" fill="#E4897B"/>
<path d="M67.3775 66.4243C67.2993 65.4119 66.8965 64.4516 66.2288 63.6858C65.5612 62.9199 64.6642 62.3893 63.6709 62.1726C60.1234 61.3695 58.0551 63.6758 58.7388 66.7894C59.4225 69.9029 60.648 71.2515 58.3432 72.484C56.0384 73.7166 56.7909 76.0786 59.1559 75.9197C59.1559 75.9197 58.068 75.4902 58.3432 74.524C58.6184 73.5577 60.8501 73.9657 61.68 72.4883C62.1616 71.6294 61.7531 69.9115 62.1616 68.9753C62.6217 67.9102 64.1224 67.8329 64.6384 68.1507L67.3775 66.4243Z" fill="#2E353A"/>
<path d="M70.4004 68.2109C70.4004 68.2109 68.4138 74.086 64.6384 73.6866C60.863 73.2872 67.3517 66.1839 67.3517 66.1839C67.3517 66.1839 73.7286 64.3887 76.4935 67.9232C79.2584 71.4577 75.1046 73.5964 75.1046 73.5964C75.1046 73.5964 75.7367 68.9711 70.4004 68.2109Z" fill="#2E353A"/>
<path d="M70.4004 67.7814C70.4004 67.7814 70.495 71.9171 67.3904 73.0981" stroke="#2E353A" stroke-width="0.5" stroke-linecap="round" stroke-linejoin="round"/>
<path opacity="0.2" d="M65.3393 102.817C63.8687 102.77 61.3231 101.099 59.6117 99.1234C59.3494 96.843 58.9624 94.1975 58.4206 91.7152C60.218 93.622 68.2461 102.898 65.3393 102.817Z" fill="black"/>
<path d="M82.3545 96.886L85.2527 95.254C85.2527 95.254 85.6311 94.0601 86.1428 93.8025C86.6545 93.5448 90.0128 92.9435 90.3697 93.2871C90.7266 93.6307 90.7997 96.2676 90.1633 96.6369C89.5269 97.0062 86.5427 97.0921 86.2589 96.9891L83.2747 98.913L82.3545 96.886Z" fill="#E4897B"/>
<path d="M84.685 99.3554C84.3539 99.4756 73.6426 103.319 68.2461 103.427C62.7636 103.538 57.6294 96.0485 56.3136 92.1619C55.5009 89.7655 55.7331 88.3698 56.133 87.5881C56.303 87.2124 56.5874 86.8997 56.9457 86.6949C59.8482 86.3685 64.9437 97.5731 67.7344 98.0713C70.5251 98.5695 82.2297 95.4945 82.2297 95.4945L84.685 99.3554Z" fill="#DEDEDE"/>
<path opacity="0.4" d="M84.685 99.3554C84.3539 99.4756 73.6426 103.319 68.2461 103.427C62.7636 103.538 57.6294 96.0485 56.3136 92.1619C55.5009 89.7655 55.7331 88.3698 56.133 87.5881C56.3668 87.2587 56.6397 86.9588 56.9457 86.6949C59.8482 86.3685 64.9437 97.5731 67.7344 98.0713C70.5251 98.5695 82.2297 95.4945 82.2297 95.4945L84.685 99.3554Z" fill="black"/>
<path d="M81.5675 95.5074L84.4184 100.055L85.33 99.248L82.6425 94.9749L81.5675 95.5074Z" fill="#DEDEDE"/>
<path opacity="0.6" d="M81.5675 95.5074L84.4184 100.055L85.33 99.248L82.6425 94.9749L81.5675 95.5074Z" fill="white"/>
<path d="M97.9419 167.747H95.3104L94.8804 101.932H98.3762L97.9419 167.747Z" fill="#DEDEDE"/>
<path opacity="0.4" d="M98.3762 102.039L98.3074 112.66L97.9462 167.747H95.3104L94.9492 112.66L94.8804 102.039H98.3762Z" fill="white"/>
<path opacity="0.2" d="M98.3762 102.039L98.3074 112.776H94.9492L94.8804 102.039H98.3762Z" fill="black"/>
<path d="M125.913 167.747H123.278L118.543 101.932H122.039L125.913 167.747Z" fill="#DEDEDE"/>
<path opacity="0.5" d="M125.913 167.747H123.278L118.775 105.205L118.543 102.039H122.039L122.228 105.205L125.913 167.747Z" fill="white"/>
<path opacity="0.2" d="M122.228 105.046H118.775L118.543 102.039H122.039L122.228 105.046Z" fill="black"/>
<path d="M69.9746 167.747H67.343L71.213 101.932H74.7089L69.9746 167.747Z" fill="#DEDEDE"/>
<path opacity="0.5" d="M74.7089 102.039L74.4767 105.205L69.9746 167.747H67.343L71.0238 105.205L71.213 102.039H74.7089Z" fill="white"/>
<path opacity="0.2" d="M71.2131 102.039H74.709L74.4768 105.046H71.0239L71.2131 102.039Z" fill="black"/>
<path d="M68.4439 100.287H124.808V102.654C124.808 102.9 124.71 103.136 124.536 103.31C124.362 103.483 124.126 103.581 123.879 103.581H69.3727C69.1264 103.581 68.8901 103.483 68.716 103.31C68.5418 103.136 68.4439 102.9 68.4439 102.654V100.287Z" fill="#DEDEDE"/>
<path opacity="0.6" d="M68.4439 100.287H124.808V102.654C124.808 102.9 124.71 103.136 124.536 103.31C124.362 103.483 124.126 103.581 123.879 103.581H69.3727C69.1264 103.581 68.8901 103.483 68.716 103.31C68.5418 103.136 68.4439 102.9 68.4439 102.654V100.287Z" fill="white"/>
<path opacity="0.2" d="M124.808 100.287H68.4439V101.936H124.808V100.287Z" fill="black"/>
<path d="M126.442 100.717H66.8099C66.5632 100.716 66.3269 100.617 66.1529 100.442C65.9788 100.268 65.8811 100.031 65.8811 99.7848C65.8811 99.5388 65.979 99.3028 66.1531 99.1289C66.3273 98.9549 66.5636 98.8572 66.8099 98.8572H126.442C126.689 98.8572 126.925 98.9549 127.099 99.1289C127.273 99.3028 127.371 99.5388 127.371 99.7848C127.371 100.031 127.273 100.268 127.099 100.442C126.925 100.617 126.689 100.716 126.442 100.717Z" fill="#DEDEDE"/>
<path opacity="0.6" d="M126.442 100.717H66.8099C66.5632 100.716 66.3269 100.617 66.1529 100.442C65.9788 100.268 65.8811 100.031 65.8811 99.7848C65.8811 99.5388 65.979 99.3028 66.1531 99.1289C66.3273 98.9549 66.5636 98.8572 66.8099 98.8572H126.442C126.689 98.8572 126.925 98.9549 127.099 99.1289C127.273 99.3028 127.371 99.5388 127.371 99.7848C127.371 100.031 127.273 100.268 127.099 100.442C126.925 100.617 126.689 100.716 126.442 100.717Z" fill="white"/>
</g>
<defs>
<clipPath id="clip0_14:1108">
<rect width="187" height="187" fill="white"/>
</clipPath>
</defs>
</svg>
