<svg width="187" height="187" viewBox="0 0 187 187" fill="none" xmlns="http://www.w3.org/2000/svg">
<path d="M187 144.273H0V144.366H187V144.273Z" fill="#EBEBEB"/>
<path d="M168.263 150.272H158.539V150.366H168.263V150.272Z" fill="#EBEBEB"/>
<path d="M133.155 151.286H116.314V151.38H133.155V151.286Z" fill="#EBEBEB"/>
<path d="M158.165 146.812H135.429V146.905H158.165V146.812Z" fill="#EBEBEB"/>
<path d="M26.812 147.438H19.62V147.532H26.812V147.438Z" fill="#EBEBEB"/>
<path d="M50.8229 147.438H30.1444V147.532H50.8229V147.438Z" fill="#EBEBEB"/>
<path d="M91.3083 149.012H63.4565V149.105H91.3083V149.012Z" fill="#EBEBEB"/>
<path d="M88.638 127.644H16.4224C15.8567 127.643 15.3144 127.418 14.9148 127.019C14.5151 126.62 14.2906 126.079 14.2906 125.515V24.3086C14.2955 23.7479 14.5222 23.2117 14.9213 22.8165C15.3205 22.4214 15.8599 22.1992 16.4224 22.1982H88.638C89.2044 22.1982 89.7476 22.4226 90.1481 22.8218C90.5486 23.2211 90.7736 23.7626 90.7736 24.3273V125.515C90.7736 126.079 90.5486 126.621 90.1481 127.02C89.7476 127.419 89.2044 127.644 88.638 127.644ZM16.4224 22.2728C15.8815 22.2738 15.363 22.4887 14.9809 22.8704C14.5987 23.2521 14.3841 23.7694 14.3841 24.3086V125.515C14.3841 126.054 14.5987 126.571 14.9809 126.953C15.363 127.335 15.8815 127.549 16.4224 127.55H88.638C89.1793 127.549 89.6982 127.335 90.0809 126.953C90.4636 126.571 90.6791 126.054 90.6801 125.515V24.3086C90.6791 23.769 90.4636 23.2518 90.0809 22.8702C89.6982 22.4886 89.1793 22.2738 88.638 22.2728H16.4224Z" fill="#EBEBEB"/>
<path d="M169.538 127.644H97.3185C96.7524 127.643 96.2098 127.418 95.8096 127.019C95.4093 126.62 95.184 126.079 95.183 125.515V24.3086C95.1889 23.7475 95.4164 23.2113 95.8161 22.8163C96.2159 22.4213 96.7557 22.1992 97.3185 22.1982H169.538C170.1 22.2002 170.638 22.4228 171.037 22.8178C171.435 23.2129 171.661 23.7485 171.666 24.3086V125.515C171.666 126.078 171.442 126.618 171.043 127.017C170.644 127.417 170.103 127.642 169.538 127.644ZM97.3185 22.2728C96.7772 22.2738 96.2584 22.4886 95.8757 22.8702C95.4929 23.2518 95.2775 23.769 95.2765 24.3086V125.515C95.2775 126.054 95.4929 126.571 95.8757 126.953C96.2584 127.335 96.7772 127.549 97.3185 127.55H169.538C170.079 127.549 170.598 127.335 170.981 126.953C171.364 126.571 171.579 126.054 171.58 125.515V24.3086C171.579 23.769 171.364 23.2518 170.981 22.8702C170.598 22.4886 170.079 22.2738 169.538 22.2728H97.3185Z" fill="#EBEBEB"/>
<path d="M159.324 144.273L157.08 140.238L164.971 48.7491C166.792 51.5974 167.612 54.9683 167.301 58.3317L159.324 144.273Z" fill="#E0E0E0"/>
<path d="M24.3586 140.238H157.08L165.439 50.2518C165.464 49.9675 165.429 49.6811 165.337 49.4109C165.245 49.1407 165.098 48.8925 164.904 48.6821C164.711 48.4717 164.475 48.3037 164.213 48.1888C163.951 48.0739 163.668 48.0146 163.382 48.0146H34.8082C34.2943 48.0151 33.7989 48.2062 33.4187 48.5509C33.0384 48.8955 32.8005 49.369 32.7512 49.879L24.3586 140.238Z" fill="#F0F0F0"/>
<path d="M155.33 136.83L163.274 51.6724C163.292 51.4658 163.267 51.2578 163.2 51.0615C163.133 50.8652 163.025 50.685 162.884 50.5323C162.744 50.3797 162.573 50.258 162.382 50.1751C162.191 50.0921 161.985 50.0496 161.778 50.0504H36.1696C35.7945 50.049 35.4325 50.1881 35.1555 50.4402C34.8784 50.6922 34.7064 51.0389 34.6736 51.4114L26.7373 136.569C26.7191 136.776 26.7443 136.984 26.8113 137.18C26.8783 137.377 26.9856 137.557 27.1264 137.709C27.2671 137.862 27.4383 137.984 27.6289 138.067C27.8195 138.15 28.0253 138.192 28.2333 138.191H153.841C154.215 138.191 154.575 138.051 154.851 137.799C155.126 137.547 155.297 137.202 155.33 136.83Z" fill="#FAFAFA"/>
<path d="M161.785 50.0504H36.1696C35.7945 50.049 35.4326 50.1881 35.1555 50.4402C34.8784 50.6922 34.7064 51.0389 34.6736 51.4114L34.251 55.9491H162.87L163.27 51.6724C163.288 51.4668 163.263 51.2596 163.197 51.0641C163.13 50.8686 163.024 50.6889 162.884 50.5365C162.745 50.384 162.575 50.2621 162.386 50.1784C162.197 50.0948 161.992 50.0512 161.785 50.0504Z" fill="#E0E0E0"/>
<path d="M42.262 52.9998C42.222 53.3791 42.0445 53.7309 41.7629 53.989C41.4812 54.2471 41.1148 54.3939 40.7323 54.4018C40.5524 54.4051 40.3738 54.37 40.2086 54.2989C40.0434 54.2279 39.8953 54.1224 39.7742 53.9897C39.6531 53.857 39.5618 53.7 39.5065 53.5293C39.4511 53.3586 39.433 53.1781 39.4532 52.9998C39.4924 52.6212 39.6693 52.27 39.9504 52.0124C40.2315 51.7548 40.5974 51.6087 40.9792 51.6016C41.159 51.5979 41.3376 51.6324 41.503 51.7031C41.6684 51.7737 41.8168 51.8786 41.9383 52.011C42.0597 52.1434 42.1514 52.3 42.2072 52.4706C42.263 52.6411 42.2817 52.8215 42.262 52.9998Z" fill="#EBEBEB"/>
<path d="M48.1711 52.9998C48.1312 53.3791 47.9537 53.7308 47.672 53.9889C47.3904 54.247 47.024 54.3938 46.6415 54.4017C46.4616 54.405 46.283 54.3699 46.1178 54.2988C45.9525 54.2278 45.8044 54.1224 45.6833 53.9897C45.5623 53.8569 45.471 53.7 45.4156 53.5293C45.3603 53.3585 45.3421 53.178 45.3624 52.9998C45.4017 52.6205 45.5791 52.2688 45.861 52.0111C46.1428 51.7534 46.5097 51.6077 46.8921 51.6015C47.0716 51.5983 47.2498 51.6333 47.4148 51.7042C47.5797 51.775 47.7276 51.8801 47.8487 52.0124C47.9697 52.1447 48.061 52.3011 48.1167 52.4714C48.1723 52.6417 48.1908 52.8218 48.1711 52.9998Z" fill="#F0F0F0"/>
<path d="M54.0767 52.9998C54.0375 53.3794 53.8602 53.7315 53.5784 53.9898C53.2966 54.2481 52.9298 54.3946 52.547 54.4017C52.3673 54.4044 52.189 54.3689 52.0241 54.2976C51.8591 54.2264 51.7113 54.1209 51.5903 53.9884C51.4694 53.8558 51.3781 53.6991 51.3225 53.5286C51.2669 53.3582 51.2483 53.1779 51.268 52.9998C51.3073 52.6205 51.4846 52.2688 51.7665 52.0111C52.0484 51.7534 52.4152 51.6077 52.7976 51.6015C52.9772 51.5983 53.1554 51.6333 53.3203 51.7042C53.4853 51.775 53.6332 51.8801 53.7542 52.0124C53.8752 52.1447 53.9666 52.3011 54.0222 52.4714C54.0778 52.6417 54.0964 52.8218 54.0767 52.9998Z" fill="white"/>
<path d="M145.673 140.238H157.084L159.32 144.273H147.09L145.673 140.238Z" fill="#E0E0E0"/>
<path d="M145.673 140.238H14.1858L15.5995 144.273H147.09L145.673 140.238Z" fill="#F5F5F5"/>
<path d="M93.0512 140.238H50.116L50.273 141.148C50.3584 141.633 50.6127 142.072 50.991 142.389C51.3693 142.705 51.8474 142.879 52.3413 142.878H91.0166C91.3225 142.879 91.6248 142.812 91.9021 142.683C92.1794 142.555 92.4251 142.367 92.6219 142.133C92.8187 141.9 92.9618 141.626 93.0411 141.332C93.1204 141.037 93.1341 140.729 93.0811 140.429L93.0512 140.238Z" fill="#E0E0E0"/>
<path d="M93.5 161.111C133.549 161.111 166.015 159.221 166.015 156.89C166.015 154.559 133.549 152.67 93.5 152.67C53.4511 152.67 20.9851 154.559 20.9851 156.89C20.9851 159.221 53.4511 161.111 93.5 161.111Z" fill="#F5F5F5"/>
<path d="M96.2901 102.063C121.921 91.4785 141.367 79.6949 139.726 75.7434C138.084 71.7919 115.975 77.1688 90.3448 87.753C64.7142 98.3373 45.2674 110.121 46.9092 114.072C48.551 118.024 70.6596 112.647 96.2901 102.063Z" fill="#DEDEDE"/>
<path opacity="0.2" d="M96.2901 102.063C121.921 91.4785 141.367 79.6949 139.726 75.7434C138.084 71.7919 115.975 77.1688 90.3448 87.753C64.7142 98.3373 45.2674 110.121 46.9092 114.072C48.551 118.024 70.6596 112.647 96.2901 102.063Z" fill="black"/>
<path d="M109.855 59.2488C109.29 59.0811 108.714 58.9245 108.146 58.7828L108.236 58.4099C108.812 58.5516 109.391 58.7119 109.96 58.8797L109.855 59.2488Z" fill="#DEDEDE"/>
<path d="M105.554 58.2086C102.691 57.6598 99.7816 57.3839 96.866 57.3846V57.0117C99.8041 57.0121 102.736 57.2892 105.621 57.8395L105.554 58.2086Z" fill="#DEDEDE"/>
<path d="M96.9034 148.844V148.471C102.896 148.472 108.83 147.289 114.362 144.992L114.504 145.339C108.927 147.654 102.945 148.845 96.9034 148.844Z" fill="#DEDEDE"/>
<path d="M128.516 134.464C145.986 117.048 145.986 88.8099 128.516 71.3933C111.047 53.9766 82.7225 53.9766 65.2528 71.3933C47.783 88.8099 47.783 117.048 65.2528 134.464C82.7225 151.881 111.047 151.881 128.516 134.464Z" fill="#DEDEDE"/>
<g opacity="0.2">
<path opacity="0.2" d="M130.126 81.3335L137.168 83.5408C133.88 76.7423 128.913 70.8875 122.735 66.5252C116.557 62.1629 109.368 59.436 101.844 58.6001L99.7009 64.3012L93.7543 66.2139C93.7543 66.2139 87.1158 72.3214 87.142 72.7167C87.1682 73.1119 87.0298 79.2194 87.0298 79.2194L82.4521 85.1442L78.54 87.7057L78.5176 93.5L80.8551 99.1265L84.3669 98.4852L87.4263 94.8013L86.9288 92.3143L94.1508 88.2538L99.6972 91.2106L107.577 88.0935L112.664 91.2404L106.07 97.4561L95.7141 100.126L88.3239 103.179L81.087 109.447L82.8485 117.277L88.6118 121.081L99.9179 121.659L106.414 128.53L110.506 135.719L112.948 138.829L116.901 136.666L120.914 126.666L123.671 113.869L122.175 106.446L119.059 108.638L116.815 103.895L112.346 99.3055L110.824 96.3002L120.608 101.006L130.9 99.4434L134.464 91.7811L130.758 85.7817L124.774 87.303L120.465 87.3366L119.044 84.5625L124.28 83.8727L130.126 81.3335Z" fill="white"/>
<path opacity="0.2" d="M75.8734 141.402L73.6294 134.664L63.0676 128.404L59.5819 127.531C63.5244 133.471 68.8353 138.383 75.071 141.859C81.3067 145.334 88.2861 147.272 95.4261 147.509L95.1231 146.763C95.1231 146.763 83.402 143.005 83.028 143.024C82.654 143.042 75.8734 141.402 75.8734 141.402Z" fill="white"/>
<path opacity="0.2" d="M56.934 99.7193L57.3641 87.4149L64.8441 82.7093L69.9044 70.5279L66.6805 69.9948C60.2822 75.8316 55.7235 83.3966 53.5588 91.7693C51.3942 100.142 51.7171 108.961 54.4881 117.154L61.71 112.538L56.934 99.7193Z" fill="white"/>
</g>
<path opacity="0.2" d="M137.355 83.9362C130.698 89.4247 115.663 97.5195 97.513 105.01C79.6844 112.371 63.5613 117.214 54.8396 118.15C55.059 118.769 55.2971 119.39 55.5539 120.014C57.7359 125.286 60.9168 130.089 64.9226 134.161C74.0744 132.561 88.5445 128.016 104.353 121.483C120.435 114.839 134.094 107.721 141.623 102.367C141.553 96.7028 140.395 91.1046 138.212 85.875C137.942 85.2113 137.658 84.5663 137.355 83.9362Z" fill="black"/>
<path d="M139.723 75.748L146.559 92.2062C148.201 96.1585 128.757 107.941 103.127 118.523C77.4966 129.105 55.3894 134.485 53.7588 130.533L46.9183 114.075C48.5602 118.027 70.6711 112.65 96.2863 102.065C121.902 91.4791 141.372 79.6967 139.723 75.748Z" fill="#DEDEDE"/>
<path opacity="0.5" d="M139.723 75.748L146.559 92.2062C148.201 96.1585 128.757 107.941 103.127 118.523C77.4966 129.105 55.3894 134.485 53.7588 130.533L46.9183 114.075C48.5602 118.027 70.6711 112.65 96.2863 102.065C121.902 91.4791 141.372 79.6967 139.723 75.748Z" fill="white"/>
<path d="M68.8497 115.957C70.0316 115.585 71.2122 115.212 72.3915 114.839C73.6581 116.519 74.9235 118.201 76.1876 119.884C75.9582 117.863 75.7351 115.836 75.5182 113.802C76.6888 113.411 77.8519 113.008 79.0188 112.605C80.4599 114.216 81.8949 115.832 83.3235 117.453C82.9196 115.464 82.5207 113.485 82.1267 111.517C83.2836 111.104 84.4381 110.683 85.59 110.253C86.1585 113.855 86.7406 117.449 87.3366 121.036C86.1597 121.461 84.9766 121.881 83.7873 122.296C82.1741 120.477 80.5534 118.659 78.9253 116.845C79.1746 119.134 79.424 121.42 79.6733 123.702C78.4815 124.097 77.2859 124.487 76.0866 124.873C73.688 121.887 71.2757 118.916 68.8497 115.957Z" fill="white"/>
<path d="M89.0344 108.918C90.1888 108.478 91.3408 108.029 92.4902 107.572C93.687 109.252 94.88 110.935 96.0694 112.62C95.8898 110.537 95.7141 108.447 95.542 106.349C96.664 105.886 97.8197 105.413 98.9529 104.939C100.319 106.538 101.678 108.137 103.03 109.738C102.678 107.715 102.33 105.685 101.986 103.649C103.116 103.165 104.238 102.674 105.352 102.177C105.833 105.878 106.332 109.572 106.848 113.258C105.696 113.755 104.543 114.252 103.389 114.749C101.863 112.95 100.327 111.146 98.7809 109.339C98.9704 111.698 99.1673 114.06 99.3718 116.424C98.2074 116.893 97.0418 117.358 95.8749 117.818C93.6109 114.838 91.3308 111.871 89.0344 108.918Z" fill="white"/>
<path d="M108.722 100.666C109.844 100.156 110.966 99.6336 112.088 99.1116C113.212 100.794 114.334 102.477 115.454 104.16C115.319 102.013 115.194 99.8598 115.08 97.7022C116.202 97.1653 117.298 96.6284 118.405 96.0803C119.691 97.6687 120.972 99.257 122.246 100.845C121.946 98.7649 121.65 96.6855 121.356 94.6075C122.455 94.0531 123.552 93.4914 124.647 92.9221C125.038 96.7228 125.442 100.512 125.858 104.291C124.739 104.86 123.617 105.425 122.492 105.987C121.051 104.197 119.604 102.408 118.15 100.618C118.285 103.054 118.428 105.481 118.58 107.9C117.448 108.444 116.314 108.981 115.177 109.511C113.038 106.56 110.886 103.612 108.722 100.666Z" fill="white"/>
<path d="M78.9477 27.2835C78.5737 25.833 75.9557 24.6026 73.5322 24.9941C70.6187 25.4676 69.5453 27.8912 69.7922 31.1314C70.0914 35.2329 66.2803 35.177 67.6604 39.3605C69.22 38.7863 71.4864 37.8429 75.1067 39.3828C78.3044 40.7401 82.1791 39.4537 83.3347 38.171C79.389 35.8518 85.6647 26.7689 78.9477 27.2835Z" fill="#263238"/>
<path d="M83.776 37.9697C81.3263 37.1867 81.719 34.6475 82.093 32.1903C82.3661 30.4267 82.6204 28.7637 81.7864 27.9098C81.2628 27.3767 80.3465 27.2051 78.9776 27.3804C78.9529 27.3837 78.9279 27.3774 78.9077 27.3628C78.8875 27.3482 78.8737 27.3265 78.8692 27.3021C78.8676 27.2898 78.8685 27.2774 78.8718 27.2655C78.8751 27.2536 78.8807 27.2424 78.8884 27.2327C78.896 27.223 78.9056 27.2149 78.9164 27.2089C78.9272 27.2029 78.9391 27.1991 78.9514 27.1977C80.3801 27.0113 81.3525 27.1977 81.921 27.7831C82.8223 28.6966 82.5568 30.3931 82.295 32.2201C81.921 34.599 81.547 37.0673 83.8508 37.7907C83.8728 37.797 83.8917 37.8111 83.904 37.8304C83.9162 37.8497 83.9209 37.8728 83.9172 37.8953C83.9136 37.9178 83.9017 37.9382 83.884 37.9526C83.8662 37.967 83.8438 37.9744 83.8209 37.9734L83.776 37.9697Z" fill="#263238"/>
<path d="M65.9549 43.7453C65.5435 43.9168 65.2069 44.0398 64.8329 44.1591C64.4589 44.2785 64.0849 44.3903 63.7109 44.4947C62.961 44.6991 62.2007 44.8634 61.4333 44.9869C60.6502 45.1159 59.8592 45.1919 59.0658 45.2143H58.4562L57.8391 45.1882C57.6372 45.1882 57.424 45.151 57.2183 45.1323L56.9041 45.0988L56.6835 45.0652C56.6049 45.0652 56.5189 45.0316 56.4366 45.013C55.7541 44.8461 55.1416 44.4691 54.6863 43.9354C54.322 43.4967 54.0498 42.9896 53.8859 42.444C53.639 41.597 53.5354 40.7149 53.5793 39.8339C53.6453 38.2908 53.9285 36.7645 54.4208 35.2999C54.4893 35.0862 54.6332 34.9045 54.8257 34.7884C55.0183 34.6722 55.2465 34.6295 55.4682 34.6682C55.6899 34.7068 55.89 34.8242 56.0316 34.9986C56.1732 35.173 56.2467 35.3927 56.2384 35.6169V35.6691C56.1733 37.0165 56.2184 38.367 56.373 39.7072C56.4354 40.2724 56.5816 40.8253 56.8069 41.3478C56.8652 41.4928 56.9591 41.621 57.0799 41.7206C57.1547 41.7579 57.1323 41.7206 57.1659 41.7206H57.4576C57.611 41.7206 57.7568 41.7206 57.9139 41.7206C58.2206 41.702 58.531 41.6871 58.8489 41.6498C59.481 41.5789 60.1205 41.4745 60.7638 41.3366C61.4071 41.1986 62.0541 41.0346 62.6974 40.8481C63.019 40.7586 63.3407 40.6654 63.6586 40.561L64.5674 40.259L64.6497 40.2292C65.1067 40.0867 65.6011 40.1245 66.031 40.3347C66.4609 40.5448 66.7936 40.9114 66.9604 41.3589C67.1273 41.8063 67.1157 42.3005 66.9279 42.7396C66.7401 43.1788 66.3905 43.5294 65.9512 43.7192L65.9549 43.7453Z" fill="#E4897B"/>
<path d="M54.5703 36.5193L53.5979 34.875L56.1261 33.5699C56.1261 33.5699 56.7395 35.4343 56.0626 36.6572L54.5703 36.5193Z" fill="#E4897B"/>
<path d="M60.4609 122.263L57.8391 122.061L58.0299 115.242L60.9919 115.339L60.4609 122.263Z" fill="#E4897B"/>
<path d="M57.6334 121.949L60.6591 120.398C60.7099 120.371 60.769 120.363 60.825 120.377C60.8811 120.391 60.9299 120.425 60.962 120.473L62.458 122.684C62.4939 122.742 62.5173 122.807 62.5267 122.875C62.5361 122.943 62.5313 123.012 62.5127 123.078C62.4941 123.144 62.462 123.205 62.4185 123.258C62.375 123.311 62.321 123.354 62.2598 123.385C61.1977 123.907 60.6815 123.87 59.3538 124.548C58.5348 124.97 56.6311 125.954 55.3969 126.26C54.1627 126.565 53.8299 125.372 54.3198 125.141C56.5114 124.078 56.8406 123.314 57.2632 122.352C57.3358 122.179 57.4667 122.037 57.6334 121.949Z" fill="#263238"/>
<path opacity="0.2" d="M60.992 115.342L58.0299 115.242L57.9252 118.959L60.704 119.116L60.992 115.342Z" fill="black"/>
<path d="M52.1842 113.087L49.6186 113.676L47.7635 107.106L50.6209 106.319L52.1842 113.087Z" fill="#E4897B"/>
<path d="M48.8743 112.136L52.2702 111.96C52.3277 111.956 52.3848 111.973 52.4305 112.008C52.4761 112.043 52.507 112.094 52.517 112.151L52.9733 114.783C52.9816 114.851 52.9758 114.92 52.9562 114.986C52.9366 115.051 52.9037 115.112 52.8596 115.165C52.8154 115.217 52.7608 115.26 52.6993 115.291C52.6378 115.321 52.5707 115.339 52.5021 115.342C51.3202 115.383 50.8714 115.063 49.3792 115.141C47.9618 115.183 46.5435 115.097 45.1417 114.884C43.9188 114.664 44.0758 113.433 44.6219 113.418C47.0566 113.348 47.6139 113.045 48.3619 112.348C48.5035 112.221 48.6842 112.146 48.8743 112.136Z" fill="#263238"/>
<path opacity="0.2" d="M50.6209 106.323L47.7635 107.109L48.7734 110.685L51.4736 110.014L50.6209 106.323Z" fill="black"/>
<path d="M69.276 44.7409C67.0806 45.7327 64.0886 45.6656 64.0886 45.6656C63.3406 43.5999 62.4766 41.4858 63.0825 40.1994C63.0825 40.1994 66.6654 39.01 69.6574 39.5619C71.2956 39.8601 71.0263 43.9542 69.276 44.7409Z" fill="#263238"/>
<path d="M64.4103 42.8281C63.8455 45.3561 63.3406 49.6142 63.5089 56.6426L75.5929 58.5293C76.6663 52.8208 77.9042 49.6477 80.4175 45.412C80.5953 45.1113 80.7054 44.7758 80.7402 44.4285C80.7751 44.0812 80.7338 43.7305 80.6192 43.4007C80.5047 43.0709 80.3196 42.7698 80.0769 42.5184C79.8341 42.2669 79.5394 42.0711 79.2132 41.9444C75.968 40.7287 72.5875 39.9074 69.1451 39.4984C68.0832 39.3749 67.0128 39.6463 66.1392 40.2607C65.2655 40.8751 64.6499 41.7893 64.4103 42.8281Z" fill="#DEDEDE"/>
<path d="M71.232 39.7817C71.232 39.7817 68.4009 40.3858 69.0516 43.7415C74.1567 43.4768 76.6326 41.0868 76.6326 41.0868L71.232 39.7817Z" fill="#263238"/>
<path d="M76.7934 37.2239C76.3222 38.6483 76.0679 40.1845 76.6326 41.0868C76.6326 41.0868 75.1067 42.3769 70.0353 42.4999C69.2873 40.1472 71.2321 39.7818 71.2321 39.7818C73.2928 39.7818 73.678 38.5327 73.7341 36.2843L75.4321 36.0718C75.602 35.982 75.795 35.945 75.9861 35.9657C76.1773 35.9864 76.3579 36.0637 76.5045 36.1878C76.6511 36.3119 76.757 36.4769 76.8085 36.6616C76.86 36.8464 76.8548 37.0422 76.7934 37.2239Z" fill="#E4897B"/>
<path opacity="0.2" d="M75.4357 36.0718C75.595 35.9889 75.7744 35.9521 75.9536 35.9656C76.1328 35.9792 76.3046 36.0426 76.4495 36.1486C76.5944 36.2546 76.7066 36.399 76.7733 36.5653C76.84 36.7317 76.8586 36.9134 76.827 37.0897C75.8596 37.9475 74.6501 38.4866 73.3638 38.6334C73.6349 37.8806 73.7617 37.0838 73.7378 36.2844L75.4357 36.0718Z" fill="black"/>
<path d="M79.5199 31.5192C78.9066 34.4611 78.7083 35.7176 76.9992 37.0562C74.4335 39.0734 70.9927 37.7646 70.7272 34.7221C70.4878 31.9778 71.535 27.6377 74.5831 26.7988C75.2484 26.6108 75.9514 26.5996 76.6224 26.7663C77.2934 26.933 77.909 27.2717 78.408 27.7489C78.9071 28.2261 79.2722 28.8251 79.4673 29.4865C79.6624 30.1479 79.6805 30.8487 79.5199 31.5192Z" fill="#E4897B"/>
<path d="M78.2146 27.0635C75.5667 27.2275 75.7836 32.1829 79.1795 33.857C81.2964 31.2544 79.6919 27.5929 78.2146 27.0635Z" fill="#263238"/>
<path d="M78.166 26.9367C76.0791 25.669 73.304 25.7846 71.9613 27.6563C69.9043 30.5013 75.1104 27.8763 77.0178 27.9994C78.2894 29.1702 78.166 26.9367 78.166 26.9367Z" fill="#263238"/>
<path d="M71.1086 30.065C71.0953 30.0518 71.0847 30.0361 71.0775 30.0189C71.0703 30.0016 71.0665 29.983 71.0665 29.9643C71.0665 29.9456 71.0703 29.9271 71.0775 29.9098C71.0847 29.8925 71.0953 29.8768 71.1086 29.8636C71.2722 29.7091 71.4712 29.5968 71.6882 29.5363C71.9053 29.4759 72.1338 29.4692 72.3541 29.5169C72.3908 29.5273 72.4218 29.5518 72.4404 29.585C72.459 29.6182 72.4636 29.6574 72.4532 29.694C72.4428 29.7306 72.4182 29.7616 72.3849 29.7801C72.3516 29.7986 72.3122 29.8032 72.2755 29.7928C72.1005 29.7593 71.92 29.7679 71.7489 29.8178C71.5779 29.8678 71.4212 29.9576 71.2919 30.0799C71.2645 30.0995 71.2311 30.1087 71.1975 30.106C71.164 30.1032 71.1325 30.0887 71.1086 30.065Z" fill="#263238"/>
<path d="M79.95 34.4126C79.606 34.9423 79.07 35.3191 78.454 35.464C77.6349 35.6505 77.2908 34.9159 77.5713 34.1739C77.8257 33.5065 78.555 32.6079 79.3478 32.7533C80.1407 32.8987 80.3651 33.7563 79.95 34.4126Z" fill="#E4897B"/>
<path d="M63.5089 56.6426C62.6413 58.1601 61.5903 60.0431 60.8909 61.4637C56.3768 65.2669 46.4732 74.9389 43.2007 82.7541C42.2732 90.368 48.3806 109.872 48.3806 109.872L51.3427 108.381C51.3427 108.381 49.368 93.0414 49.3942 84.8011C55.5166 78.1903 73.8014 67.5935 72.1184 57.9886L63.5089 56.6426Z" fill="#263238"/>
<path opacity="0.3" d="M66.0447 64.2416C63.2347 68.1447 60.8158 72.3134 58.8228 76.6877C63.6436 72.7242 68.6777 68.3058 70.9628 63.8799L66.0447 64.2416Z" fill="black"/>
<path d="M66.9833 57.1832C66.9833 57.1832 61.0293 74.5027 58.6244 86.7661C57.2893 95.8714 57.5959 117.889 57.5959 117.889L61.0293 118.295C61.0293 118.295 64.5299 97.0124 64.5037 87.7505C69.7883 76.0836 77.2758 68.1379 75.5928 58.5293L66.9833 57.1832Z" fill="#263238"/>
<path opacity="0.2" d="M64.7431 64.1372C64.7267 64.1376 64.7104 64.1337 64.6959 64.1258C64.6815 64.118 64.6694 64.1065 64.6608 64.0924C64.6309 64.044 63.9128 62.8694 64.0288 61.7844C64.1447 60.6994 65.1508 57.4182 65.1919 57.2802C65.1997 57.2562 65.2165 57.2362 65.2388 57.2243C65.2612 57.2125 65.2873 57.2098 65.3116 57.2169C65.3347 57.2246 65.3539 57.2409 65.3651 57.2625C65.3763 57.2841 65.3785 57.3092 65.3714 57.3324C65.3714 57.366 64.3242 60.7553 64.212 61.8068C64.1997 62.5094 64.3739 63.2027 64.7169 63.8165L66.7365 57.6307C66.7435 57.607 66.7596 57.587 66.7813 57.5751C66.8031 57.5632 66.8287 57.5604 66.8525 57.5673C66.8643 57.5711 66.8753 57.5773 66.8848 57.5853C66.8943 57.5934 66.902 57.6033 66.9076 57.6144C66.9132 57.6256 66.9165 57.6377 66.9173 57.6501C66.9181 57.6625 66.9164 57.6749 66.9123 57.6867L64.8291 64.0775C64.8235 64.0945 64.8131 64.1095 64.7992 64.1207C64.7853 64.1319 64.7684 64.139 64.7506 64.1409L64.7431 64.1372Z" fill="white"/>
<path opacity="0.2" d="M74.9833 61.721C74.9723 61.7245 74.9606 61.7245 74.9496 61.721C71.6696 60.4197 70.1811 58.3653 70.1662 58.3354C70.159 58.3254 70.154 58.3141 70.1512 58.3021C70.1485 58.2901 70.1482 58.2777 70.1503 58.2655C70.1524 58.2534 70.1568 58.2418 70.1634 58.2314C70.17 58.221 70.1785 58.212 70.1886 58.2049C70.1987 58.1978 70.21 58.1928 70.2221 58.1901C70.2341 58.1873 70.2465 58.187 70.2587 58.1891C70.2709 58.1912 70.2825 58.1956 70.2929 58.2022C70.3034 58.2087 70.3124 58.2173 70.3195 58.2273C70.3195 58.2497 71.7931 60.2669 75.0169 61.5495C75.0366 61.5578 75.0528 61.5726 75.0628 61.5913C75.0729 61.61 75.0762 61.6316 75.0723 61.6525C75.0684 61.6734 75.0574 61.6923 75.0412 61.7061C75.025 61.7199 75.0046 61.7278 74.9833 61.7285V61.721Z" fill="white"/>
<path d="M57.2668 116.438L57.5062 118.325L61.306 118.523L61.5342 116.491L57.2668 116.438Z" fill="#DEDEDE"/>
<path d="M47.4493 108.549L48.2497 110.275L51.9336 109.313L51.5334 107.307L47.4493 108.549Z" fill="#DEDEDE"/>
<path d="M75.073 31.8361C75.0393 32.0784 74.8823 32.2574 74.7252 32.2388C74.5681 32.2201 74.4708 32.0076 74.5082 31.7652C74.5456 31.5229 74.699 31.3439 74.8561 31.3625C75.0131 31.3812 75.1104 31.5937 75.073 31.8361Z" fill="#263238"/>
<path d="M72.3728 31.5192C72.3354 31.7616 72.1783 31.9405 72.025 31.9219C71.8717 31.9033 71.7707 31.6907 71.8043 31.4521C71.838 31.2135 71.9951 31.0308 72.1522 31.0494C72.3092 31.068 72.4065 31.2657 72.3728 31.5192Z" fill="#263238"/>
<path d="M72.2195 31.0576L71.6697 30.8182C71.6697 30.8182 71.8978 31.3082 72.2195 31.0576Z" fill="#263238"/>
<path d="M72.8327 31.9517C72.54 32.4751 72.1777 32.9567 71.7556 33.3834C71.8643 33.4872 71.9951 33.5652 72.1382 33.6117C72.2813 33.6581 72.433 33.6719 72.5822 33.6519L72.8327 31.9517Z" fill="#DE5753"/>
<path d="M73.3227 34.722C73.3102 34.7164 73.3 34.7066 73.2939 34.6944C73.2878 34.6822 73.2861 34.6682 73.289 34.6549C73.2899 34.6456 73.2927 34.6365 73.2972 34.6283C73.3016 34.62 73.3077 34.6128 73.315 34.6069C73.3223 34.601 73.3307 34.5966 73.3397 34.5939C73.3487 34.5913 73.3582 34.5905 73.3675 34.5915C73.6677 34.6326 73.9734 34.6034 74.2603 34.5063C74.5472 34.4093 74.8075 34.2469 75.0206 34.0322C75.0272 34.0256 75.0351 34.0203 75.0438 34.0167C75.0524 34.0131 75.0617 34.0112 75.0711 34.0112C75.0805 34.0112 75.0898 34.0131 75.0985 34.0167C75.1071 34.0203 75.115 34.0256 75.1216 34.0322C75.1283 34.0388 75.1336 34.0466 75.1372 34.0553C75.1408 34.0639 75.1427 34.0732 75.1427 34.0826C75.1427 34.0919 75.1408 34.1012 75.1372 34.1098C75.1336 34.1185 75.1283 34.1263 75.1216 34.1329C74.894 34.3671 74.6141 34.5442 74.3047 34.6499C73.9953 34.7555 73.6651 34.7866 73.3414 34.7407C73.3371 34.739 73.3333 34.7365 73.3301 34.7332C73.3269 34.73 73.3243 34.7262 73.3227 34.722Z" fill="#263238"/>
<path d="M75.7388 31.0233C75.719 31.0091 75.7035 30.9897 75.6939 30.9674C75.6331 30.8027 75.5333 30.655 75.4031 30.5369C75.2729 30.4188 75.1161 30.3337 74.9459 30.2888C74.9276 30.2857 74.9101 30.2789 74.8944 30.2689C74.8788 30.2589 74.8653 30.2458 74.8549 30.2305C74.8444 30.2152 74.8371 30.1979 74.8335 30.1798C74.8298 30.1616 74.8299 30.1429 74.8337 30.1247C74.841 30.0873 74.8627 30.0542 74.8942 30.0326C74.9256 30.011 74.9644 30.0026 75.002 30.0091C75.2198 30.0603 75.4215 30.1644 75.5892 30.312C75.7568 30.4597 75.8853 30.6464 75.9632 30.8555C75.9769 30.8907 75.9764 30.9298 75.9617 30.9646C75.9471 30.9994 75.9194 31.0271 75.8846 31.042C75.861 31.0528 75.8348 31.0568 75.809 31.0535C75.7832 31.0503 75.7589 31.0398 75.7388 31.0233Z" fill="#263238"/>
<path d="M74.9234 31.3857L74.3737 31.1464C74.3737 31.1464 74.6018 31.64 74.9234 31.3857Z" fill="#263238"/>
<path d="M81.4983 45.1659C81.7452 46.0794 81.9359 46.9705 82.1416 47.8803C82.3473 48.7901 82.5156 49.6962 82.6652 50.6171C82.8148 51.5381 82.9607 52.4628 83.0616 53.4099C83.1849 54.3992 83.2374 55.396 83.2187 56.3928V56.4897C83.2206 56.5232 83.2206 56.5568 83.2187 56.5904C83.0663 57.4751 82.8488 58.3475 82.568 59.2004C82.3174 60.0207 82.0257 60.8186 81.7265 61.6054C81.4273 62.3921 81.1056 63.1677 80.7653 63.9358C80.4249 64.7039 80.0622 65.4496 79.662 66.1953C79.5558 66.3935 79.3814 66.5468 79.1709 66.6269C78.9604 66.7071 78.7279 66.7087 78.5162 66.6316C78.3046 66.5545 78.128 66.4037 78.019 66.2071C77.9099 66.0104 77.8758 65.7812 77.9229 65.5614L79.0112 60.7739C79.1945 59.9834 79.3553 59.193 79.5086 58.4137C79.6615 57.6746 79.7739 56.9278 79.8452 56.1765V56.3741C79.7848 55.5424 79.6787 54.7147 79.5273 53.8946C79.3777 53.037 79.2057 52.1682 79.0262 51.2845L78.4577 48.6745L77.8668 46.0645C77.7478 45.5844 77.8249 45.0768 78.0813 44.6534C78.3376 44.23 78.7522 43.9255 79.2338 43.8068C79.7153 43.6881 80.2245 43.765 80.6491 44.0206C81.0738 44.2762 81.3793 44.6895 81.4983 45.1696V45.1659Z" fill="#E4897B"/>
<path d="M76.3858 44.1667C75.7276 46.4822 78.3044 51.5717 78.3044 51.5717C79.7181 51.4972 81.1954 49.2227 82.9046 47.7685C82.9046 47.7685 81.4834 43.8348 80.1071 42.5485C78.8916 41.4224 76.9057 42.3322 76.3858 44.1667Z" fill="#263238"/>
<path d="M53.2277 34.2112L53.6017 34.8637L56.1299 33.5587L55.6886 32.8988C55.5747 32.7253 55.4039 32.5966 55.2054 32.5347C55.0069 32.4728 54.793 32.4816 54.6003 32.5595L53.669 32.9323C53.5501 32.9807 53.4429 33.0539 53.3546 33.147C53.2664 33.2401 53.1991 33.3509 53.1573 33.472C53.1155 33.5931 53.1002 33.7217 53.1123 33.8492C53.1244 33.9767 53.1638 34.1001 53.2277 34.2112Z" fill="#E4897B"/>
<path d="M78.2333 64.7449L76.3633 66.5309L78.2744 69.0291C78.2744 69.0291 80.4735 67.724 79.9724 65.3899L78.2333 64.7449Z" fill="#E4897B"/>
<path d="M75.8023 68.3467L76.3483 66.5309L78.2595 69.0291L77.418 70.0731C77.3815 70.1149 77.3362 70.148 77.2853 70.1702C77.2344 70.1923 77.1792 70.2029 77.1237 70.2011C77.0682 70.1993 77.0137 70.1852 76.9644 70.1598C76.915 70.1345 76.8719 70.0985 76.8383 70.0544L75.8584 68.6562C75.827 68.6118 75.8057 68.5611 75.796 68.5076C75.7863 68.4542 75.7885 68.3993 75.8023 68.3467Z" fill="#E4897B"/>
<path d="M63.4902 55.7552C63.1349 55.6657 63.0003 56.7321 63.2845 57.0267C63.5687 57.3212 68.8945 58.7008 75.6901 59.1557C76.4381 58.9469 76.2511 57.8171 75.7424 57.7463C74.052 57.8619 67.5556 56.7806 63.4902 55.7552Z" fill="#DEDEDE"/>
<path opacity="0.2" d="M63.4902 55.7552C63.1349 55.6657 63.0003 56.7321 63.2845 57.0267C63.5687 57.3212 68.8945 58.7008 75.6901 59.1557C76.4381 58.9469 76.2511 57.8171 75.7424 57.7463C74.052 57.8619 67.5556 56.7806 63.4902 55.7552Z" fill="white"/>
<path d="M59.7128 22L47.6102 31.0717L52.7901 31.5341L50.5311 35.6169L53.0407 36.9965L55.3033 32.9174L58.4524 37.045L59.7128 22Z" fill="#DEDEDE"/>
<g opacity="0.2">
<path opacity="0.2" d="M53.9345 28.4803C53.686 27.9107 53.5235 27.3076 53.452 26.6906L51.0248 28.5101C51.107 29.0957 51.268 29.6676 51.5035 30.2104C51.6792 30.6605 51.9117 31.0866 52.1954 31.4781L52.7901 31.534L52.5731 31.9293C53.3889 32.6781 53.9915 33.6287 54.3197 34.6847L55.2996 32.9173L57.0312 35.1806C57.07 34.2298 56.9056 33.2817 56.5488 32.3991C55.6287 30.1694 54.8583 30.71 53.9345 28.4803Z" fill="white"/>
<path opacity="0.2" d="M59.1181 29.0918C58.43 28.0515 57.7942 28.0254 57.0611 26.258C56.8016 25.6525 56.6352 25.0115 56.5675 24.3564L54.8695 25.6316C54.9372 26.2662 55.0999 26.887 55.352 27.4736C56.272 29.7107 57.0424 29.1589 57.97 31.3886C58.6581 33.0628 58.4038 33.7861 58.617 34.983L59.1181 29.0918Z" fill="white"/>
</g>
<path d="M56.2085 36.3142C57.0276 35.3187 56.661 34.0435 56.6835 32.8317C56.6835 32.6825 56.3843 32.4924 56.0776 32.9622C55.8913 33.3158 55.8269 33.7206 55.8943 34.1143C55.2772 34.3865 54.8584 35.2106 55.3333 36.1502C55.6108 36.2637 55.9086 36.3195 56.2085 36.3142Z" fill="#E4897B"/>
<path d="M77.13 27.7905C76.7074 28.4617 74.426 29.1105 73.4087 29.282C75.5068 28.4841 76.2324 27.7905 76.2324 27.7905H77.13Z" fill="#263238"/>
</svg>
