<svg width="187" height="187" viewBox="0 0 187 187" fill="none" xmlns="http://www.w3.org/2000/svg">
<g clip-path="url(#clip0_14:1366)">
<path d="M202.992 154.741H-15V154.85H202.992V154.741Z" fill="#E0E0E0"/>
<path d="M172.351 160.435H159.973V160.544H172.351V160.435Z" fill="#E0E0E0"/>
<path d="M156.778 160.487H145.717V160.596H156.778V160.487Z" fill="#E0E0E0"/>
<path d="M105.602 157.963H90.713V158.072H105.602V157.963Z" fill="#E0E0E0"/>
<path d="M133.679 161.342H112.987V161.451H133.679V161.342Z" fill="#E0E0E0"/>
<path d="M47.2758 157.837H27.2424V157.946H47.2758V157.837Z" fill="#E0E0E0"/>
<path d="M56.5012 157.837H49.6955V157.946H56.5012V157.837Z" fill="#E0E0E0"/>
<path d="M29.7625 159.798H12.2316V159.907H29.7625V159.798Z" fill="#E0E0E0"/>
<path d="M88.3281 135.296H4.14403C3.48454 135.295 2.85245 135.032 2.38653 134.565C1.9206 134.099 1.65892 133.466 1.65892 132.807V14.4677C1.66466 13.812 1.92888 13.185 2.39418 12.723C2.85949 12.2609 3.48829 12.0011 4.14403 12H88.3281C88.9883 12 89.6216 12.2623 90.0884 12.7291C90.5553 13.196 90.8176 13.8292 90.8176 14.4895V132.807C90.8176 133.467 90.5553 134.1 90.0884 134.567C89.6216 135.034 88.9883 135.296 88.3281 135.296ZM4.14403 12.0872C3.51344 12.0884 2.90908 12.3397 2.4636 12.786C2.01812 13.2323 1.76792 13.8371 1.76792 14.4677V132.807C1.76792 133.437 2.01812 134.042 2.4636 134.488C2.90908 134.935 3.51344 135.186 4.14403 135.187H88.3281C88.9591 135.186 89.5639 134.935 90.0101 134.489C90.4563 134.042 90.7074 133.438 90.7086 132.807V14.4677C90.7074 13.8367 90.4563 13.2319 90.0101 12.7857C89.5639 12.3395 88.9591 12.0883 88.3281 12.0872H4.14403Z" fill="#E0E0E0"/>
<path d="M182.636 135.296H98.4473C97.7874 135.295 97.1548 135.032 96.6882 134.566C96.2216 134.099 95.9589 133.467 95.9578 132.807V14.4677C95.9647 13.8116 96.2299 13.1846 96.6959 12.7227C97.1619 12.2608 97.7911 12.0011 98.4473 12H182.636C183.291 12.0023 183.918 12.2626 184.383 12.7245C184.847 13.1864 185.111 13.8127 185.116 14.4677V132.807C185.116 133.465 184.855 134.097 184.39 134.564C183.925 135.031 183.294 135.294 182.636 135.296ZM98.4473 12.0872C97.8163 12.0883 97.2115 12.3395 96.7653 12.7857C96.3191 13.2319 96.0679 13.8367 96.0668 14.4677V132.807C96.0679 133.438 96.3191 134.042 96.7653 134.489C97.2115 134.935 97.8163 135.186 98.4473 135.187H182.636C183.267 135.186 183.871 134.935 184.318 134.489C184.764 134.042 185.015 133.438 185.016 132.807V14.4677C185.015 13.8367 184.764 13.2319 184.318 12.7857C183.871 12.3395 183.267 12.0883 182.636 12.0872H98.4473Z" fill="#E0E0E0"/>
<path d="M128.16 22.5813H16.1117V79.0673H128.16V22.5813Z" fill="#E0E0E0"/>
<path d="M129.62 22.5813H17.5723V79.0673H129.62V22.5813Z" fill="#F0F0F0"/>
<path d="M127 76.4123V25.2278L20.197 25.2278V76.4123H127Z" fill="#F5F5F5"/>
<path d="M28.1057 76.4165L57.0725 25.2321H70.6446L41.6823 76.4165H28.1057Z" fill="white"/>
<path d="M46.2383 76.4165L75.2051 25.2321H88.7773L59.8149 76.4165H46.2383Z" fill="white"/>
<path d="M83.9682 76.4165L112.931 25.2321H118.52L89.5575 76.4165H83.9682Z" fill="white"/>
<path d="M92.2302 76.4122V25.2278H88.2802V76.4122H92.2302Z" fill="#E0E0E0"/>
<path d="M55.9999 76.4123V25.2278H52.0499V76.4123H55.9999Z" fill="#E0E0E0"/>
<path d="M93.6165 78.0995V23.2615H89.6665V78.0995H93.6165Z" fill="#F5F5F5"/>
<path d="M57.3864 78.0995V23.2615H53.4363V78.0995H57.3864Z" fill="#F5F5F5"/>
<path d="M127 76.4122V25.2278H125.897V76.4122H127Z" fill="#E0E0E0"/>
<path d="M155.836 95.7437C155.836 95.7437 147.84 81.9623 158.931 70.9929C158.931 70.9929 161.826 72.8764 161.783 75.4138C161.739 77.9512 158.683 78.5921 159.337 80.711C159.991 82.8299 162.881 84.9052 160.989 86.6534C159.097 88.4017 161.29 89.9626 161.164 92.1032C161.037 94.2439 155.836 95.7437 155.836 95.7437Z" fill="#E0E0E0"/>
<path d="M157.091 97.9977C157.091 97.9977 160.331 82.3982 146.344 75.4835C146.344 75.4835 144.195 78.1866 145.036 80.5802C145.878 82.9737 148.982 82.6206 149.026 84.8354C149.069 87.0502 146.985 89.932 149.335 90.9958C151.685 92.0596 150.09 94.2308 150.887 96.2276C151.685 98.2244 157.091 97.9977 157.091 97.9977Z" fill="#EBEBEB"/>
<path d="M149.972 94.0347C149.972 94.0347 150.111 100.54 155.491 100.54C160.871 100.54 161.015 94.0347 161.015 94.0347H149.972Z" fill="#F5F5F5"/>
<path d="M112.638 95.4734C112.638 95.4734 112.822 100.539 119.898 100.539C126.974 100.539 127.161 95.4734 127.161 95.4734H112.638Z" fill="#EBEBEB"/>
<path d="M129.062 96.729C129.062 96.729 129.202 100.539 134.521 100.539C139.84 100.539 139.975 96.729 139.975 96.729H129.062Z" fill="#EBEBEB"/>
<path d="M117.622 103.7H105.711V151.471H117.622V103.7Z" fill="#EBEBEB"/>
<path d="M166.731 151.467H107.995V154.741H166.731V151.467Z" fill="#EBEBEB"/>
<path d="M117.622 151.467H169.02V103.696H117.622V151.467Z" fill="#F5F5F5"/>
<path d="M122.304 125.26H164.338V108.317H122.304V125.26Z" fill="#EBEBEB"/>
<path d="M122.304 145.289H164.338V128.347H122.304V145.289Z" fill="#EBEBEB"/>
<path d="M148.058 110.175H138.601C138.293 110.175 137.998 110.053 137.78 109.835C137.562 109.618 137.438 109.323 137.437 109.015C137.438 108.707 137.561 108.411 137.78 108.193C137.998 107.975 138.293 107.852 138.601 107.851H148.058C148.366 107.852 148.662 107.975 148.88 108.193C149.098 108.411 149.221 108.707 149.222 109.015C149.221 109.323 149.098 109.618 148.879 109.835C148.661 110.053 148.366 110.175 148.058 110.175Z" fill="#F5F5F5"/>
<path d="M148.058 130.204H138.601C138.293 130.204 137.998 130.082 137.78 129.865C137.562 129.647 137.438 129.352 137.437 129.044C137.438 128.736 137.561 128.44 137.78 128.222C137.998 128.004 138.293 127.881 138.601 127.88H148.058C148.366 127.881 148.662 128.004 148.88 128.222C149.098 128.44 149.221 128.736 149.222 129.044C149.221 129.352 149.098 129.647 148.879 129.865C148.661 130.082 148.366 130.204 148.058 130.204Z" fill="#F5F5F5"/>
<path d="M170.603 100.54H117.617V103.7H170.603V100.54Z" fill="#EBEBEB"/>
<path d="M104.041 103.696H117.617V100.535H104.041V103.696Z" fill="#E0E0E0"/>
<path d="M167.947 30.5337H142.146V60.2591H167.947V30.5337Z" fill="#EBEBEB"/>
<path d="M170.877 30.5337H142.918V60.2591H170.877V30.5337Z" fill="#F5F5F5"/>
<path d="M168.536 57.9134V32.8749H145.259V57.9134H168.536Z" fill="white"/>
<path d="M162.894 49.791V40.9972C162.894 39.8631 161.975 38.9437 160.841 38.9437H152.954C151.82 38.9437 150.901 39.8631 150.901 40.9972V49.791C150.901 50.9251 151.82 51.8445 152.954 51.8445H160.841C161.975 51.8445 162.894 50.9251 162.894 49.791Z" fill="#F5F5F5"/>
<path d="M102.319 127.065H99.3236V154.741H102.319V127.065Z" fill="#E0E0E0"/>
<path opacity="0.5" d="M102.319 127.065H100.819V154.741H102.319V127.065Z" fill="#F5F5F5"/>
<path d="M89.2001 134.817H87.1422C87.3676 134.625 87.5486 134.388 87.6728 134.12C87.7971 133.852 87.8615 133.56 87.8616 133.264H63.477C63.478 133.56 63.5432 133.852 63.6682 134.12C63.7932 134.388 63.9749 134.626 64.2008 134.817H62.1691C61.4406 134.817 60.742 135.106 60.2269 135.621C59.7118 136.136 59.4224 136.835 59.4224 137.563V145.572C59.4224 146.301 59.7118 146.999 60.2269 147.514C60.742 148.03 61.4406 148.319 62.1691 148.319H89.2001C89.9285 148.319 90.6272 148.03 91.1423 147.514C91.6574 146.999 91.9468 146.301 91.9468 145.572V137.563C91.9468 136.835 91.6574 136.136 91.1423 135.621C90.6272 135.106 89.9285 134.817 89.2001 134.817Z" fill="#F5F5F5"/>
<path d="M66.6466 140.733H50.2493C49.2284 140.733 48.4007 141.56 48.4007 142.581V146.47C48.4007 147.491 49.2284 148.319 50.2493 148.319H66.6466C67.6676 148.319 68.4952 147.491 68.4952 146.47V142.581C68.4952 141.56 67.6676 140.733 66.6466 140.733Z" fill="#EBEBEB"/>
<path d="M67.8761 139.059H49.0198C48.6779 139.059 48.4007 139.336 48.4007 139.678V140.384C48.4007 140.726 48.6779 141.003 49.0198 141.003H67.8761C68.218 141.003 68.4952 140.726 68.4952 140.384V139.678C68.4952 139.336 68.218 139.059 67.8761 139.059Z" fill="#E0E0E0"/>
<path d="M70.3481 114.705C70.3481 114.705 70.6315 123.86 81.3567 123.86C92.0819 123.86 92.3653 114.705 92.3653 114.705H70.3481Z" fill="#EBEBEB"/>
<path d="M18.6187 127.065H31.9947V123.865H18.6187V127.065Z" fill="#E0E0E0"/>
<path d="M112.7 123.865H31.999V127.065H112.7V123.865Z" fill="#F5F5F5"/>
<path d="M18.6187 151.519H31.9947V148.319H18.6187V151.519Z" fill="#E0E0E0"/>
<path d="M21.6183 127.065H18.6231V154.741H21.6183V127.065Z" fill="#E0E0E0"/>
<path opacity="0.5" d="M21.6183 127.065H20.1185V154.741H21.6183V127.065Z" fill="#F5F5F5"/>
<path d="M33.4945 127.065H30.4992V154.741H33.4945V127.065Z" fill="#F5F5F5"/>
<path d="M31.999 127.065H30.4992V154.741H31.999V127.065Z" fill="#E0E0E0"/>
<path d="M112.695 127.065H109.7V154.741H112.695V127.065Z" fill="#F5F5F5"/>
<path d="M111.2 127.065H109.7V154.741H111.2V127.065Z" fill="#E0E0E0"/>
<path d="M112.7 148.319H31.999V151.519H112.7V148.319Z" fill="#F5F5F5"/>
<path d="M53.5192 121.977H37.2483V123.865H53.5192V121.977Z" fill="#E0E0E0"/>
<path d="M53.5191 123.86H59.3483V121.973H53.5191V123.86Z" fill="#EBEBEB"/>
<path d="M93.9958 174.43C140.682 174.43 178.529 172.22 178.529 169.495C178.529 166.769 140.682 164.559 93.9958 164.559C47.3097 164.559 9.46301 166.769 9.46301 169.495C9.46301 172.22 47.3097 174.43 93.9958 174.43Z" fill="#F5F5F5"/>
<path d="M79.9877 53.7235C80.0182 58.8899 76.3167 58.8376 76.3908 57.2332C76.465 55.6288 75.5494 51.7878 76.3908 52.1583C77.2323 52.5289 79.9746 51.439 79.9877 53.7235Z" fill="#263238"/>
<path d="M77.6596 63.0797C78.1697 63.0405 79.1942 63.5157 79.2858 64.8629C79.3096 65.2544 79.424 65.6349 79.62 65.9746C79.8159 66.3143 80.0881 66.6039 80.415 66.8205C80.415 66.8205 78.719 67.0254 77.6072 66.1447C76.7004 65.4341 76.2993 63.8776 76.7745 63.5288C77.0349 63.3189 77.3364 63.1659 77.6596 63.0797Z" fill="#263238"/>
<path d="M76.9924 59.4088C77.8644 60.1805 78.6622 62.2209 76.6959 63.1888C74.7297 64.1567 71.6385 61.9026 71.6385 61.9026L75.0348 60.3287L76.9924 59.4088Z" fill="#263238"/>
<path d="M77.9603 63.2672C77.9124 62.9847 77.8334 62.7084 77.7249 62.4432C77.7155 62.418 77.7006 62.3952 77.6812 62.3765C77.6619 62.3579 77.6385 62.3438 77.6129 62.3354C77.5874 62.3271 77.5603 62.3245 77.5336 62.3281C77.5069 62.3317 77.4814 62.3412 77.4589 62.356L76.2513 63.1626C76.227 63.1789 76.2071 63.201 76.1933 63.2269C76.1796 63.2527 76.1724 63.2815 76.1724 63.3108C76.1724 63.3401 76.1796 63.3689 76.1933 63.3948C76.2071 63.4206 76.227 63.4427 76.2513 63.459C76.425 63.5865 76.6122 63.6947 76.8093 63.7817C77.0927 63.895 77.6813 63.5724 77.8818 63.4329C77.9094 63.4157 77.9314 63.3909 77.9453 63.3615C77.9592 63.3322 77.9644 63.2994 77.9603 63.2672Z" fill="#DEDEDE"/>
<path opacity="0.3" d="M77.9603 63.2672C77.9124 62.9847 77.8334 62.7084 77.7249 62.4432C77.7155 62.418 77.7006 62.3952 77.6812 62.3765C77.6619 62.3579 77.6385 62.3438 77.6129 62.3354C77.5874 62.3271 77.5603 62.3245 77.5336 62.3281C77.5069 62.3317 77.4814 62.3412 77.4589 62.356L76.2513 63.1626C76.227 63.1789 76.2071 63.201 76.1933 63.2269C76.1796 63.2527 76.1724 63.2815 76.1724 63.3108C76.1724 63.3401 76.1796 63.3689 76.1933 63.3948C76.2071 63.4206 76.227 63.4427 76.2513 63.459C76.425 63.5865 76.6122 63.6947 76.8093 63.7817C77.0927 63.895 77.6813 63.5724 77.8818 63.4329C77.9094 63.4157 77.9314 63.3909 77.9453 63.3615C77.9592 63.3322 77.9644 63.2994 77.9603 63.2672Z" fill="black"/>
<path d="M64.9636 61.1265C64.4797 60.9652 63.3723 61.1832 62.9625 62.4737C62.8461 62.8482 62.6446 63.1906 62.3738 63.4742C62.103 63.7579 61.7703 63.975 61.4017 64.1087C61.4017 64.1087 63.0017 64.7103 64.2922 64.1087C65.3386 63.6334 66.0797 62.2121 65.7179 61.7587C65.5151 61.496 65.2578 61.2803 64.9636 61.1265Z" fill="#263238"/>
<path d="M69.7682 52.2543C68.0024 52.7339 65.6263 54.8266 66.6814 57.3945C65.6394 58.1052 64.3053 60.1499 65.8661 61.4579C67.5447 62.8661 71.6734 60.8911 71.6734 60.8911L71.7039 60.2197L72.1966 55.2233L69.7682 52.2543Z" fill="#263238"/>
<path d="M64.628 61.2399C64.7452 60.976 64.8914 60.7259 65.064 60.4944C65.0812 60.4734 65.1028 60.4565 65.1273 60.4449C65.1518 60.4333 65.1786 60.4272 65.2057 60.4272C65.2328 60.4272 65.2596 60.4333 65.2841 60.4449C65.3086 60.4565 65.3302 60.4734 65.3474 60.4944L66.324 61.5625C66.3437 61.5843 66.3579 61.6104 66.3654 61.6388C66.3729 61.6672 66.3735 61.6969 66.3671 61.7255C66.3607 61.7542 66.3475 61.7809 66.3286 61.8033C66.3097 61.8258 66.2857 61.8434 66.2586 61.8546C66.0605 61.9354 65.8545 61.9953 65.6439 62.0334C65.3387 62.077 64.8678 61.6279 64.6847 61.4448C64.6551 61.4208 64.6338 61.3882 64.6236 61.3514C64.6134 61.3147 64.615 61.2757 64.628 61.2399Z" fill="#DEDEDE"/>
<path opacity="0.3" d="M64.628 61.2399C64.7452 60.976 64.8914 60.7259 65.064 60.4944C65.0812 60.4734 65.1028 60.4565 65.1273 60.4449C65.1518 60.4333 65.1786 60.4272 65.2057 60.4272C65.2328 60.4272 65.2596 60.4333 65.2841 60.4449C65.3086 60.4565 65.3302 60.4734 65.3474 60.4944L66.324 61.5625C66.3437 61.5843 66.3579 61.6104 66.3654 61.6388C66.3729 61.6672 66.3735 61.6969 66.3671 61.7255C66.3607 61.7542 66.3475 61.7809 66.3286 61.8033C66.3097 61.8258 66.2857 61.8434 66.2586 61.8546C66.0605 61.9354 65.8545 61.9953 65.6439 62.0334C65.3387 62.077 64.8678 61.6279 64.6847 61.4448C64.6551 61.4208 64.6338 61.3882 64.6236 61.3514C64.6134 61.3147 64.615 61.2757 64.628 61.2399Z" fill="black"/>
<path d="M80.5153 70.4523C81.348 71.0975 82.2592 71.7864 83.1748 72.4142C84.0903 73.042 85.0102 73.6742 85.9563 74.254C86.9024 74.8339 87.8616 75.3745 88.8295 75.889L89.5576 76.2596L90.2987 76.604C90.5429 76.7217 90.7914 76.8264 91.0443 76.9223L91.4148 77.0749C91.5413 77.1228 91.6764 77.1839 91.7549 77.2057C92.2106 77.3453 92.6773 77.4459 93.1501 77.5065C93.6645 77.5806 94.2051 77.6329 94.7545 77.6722C95.8488 77.7419 96.9736 77.7724 98.1028 77.7768C99.232 77.7812 100.374 77.7768 101.512 77.7419C102.65 77.707 103.801 77.6809 104.935 77.646L105.148 79.3594C102.858 79.8212 100.546 80.1632 98.2206 80.384C97.0478 80.4886 95.8706 80.5671 94.6673 80.5758C94.0656 80.5758 93.4553 80.5758 92.8274 80.5191C92.1523 80.4794 91.4832 80.3698 90.8306 80.1921C90.6301 80.1398 90.5036 80.0875 90.3554 80.0396L89.9194 79.887C89.6273 79.791 89.3396 79.6864 89.0475 79.5687L88.2017 79.2286L87.3733 78.8624C86.2787 78.3687 85.2119 77.8156 84.1775 77.2057C83.1486 76.5996 82.1371 75.9718 81.1605 75.3004C80.1839 74.629 79.2422 73.9358 78.283 73.1205L80.5153 70.4523Z" fill="#E4897B"/>
<path d="M75.9896 68.4947C77.0752 67.6489 81.544 70.4173 82.9043 71.5727L81.9146 77.5588C81.9146 77.5588 75.4839 74.8644 75.0959 73.0245C74.6948 71.1018 75.17 69.1399 75.9896 68.4947Z" fill="#263238"/>
<path d="M104.459 77.7942L107.154 75.7058L107.367 78.9365C107.367 78.9365 105.51 80.0875 104.285 79.3725L104.459 77.7942Z" fill="#E4897B"/>
<path d="M109.556 75.3876L110.934 76.9222L107.35 78.9365L107.136 75.7058L109.556 75.3876Z" fill="#E4897B"/>
<path d="M58.3672 165.235L61.7636 165.488L63.0017 157.671L59.6098 157.418L58.3672 165.235Z" fill="#E4897B"/>
<path d="M34.3401 154.309L37.222 156.123L42.3535 150.037L39.4716 148.219L34.3401 154.309Z" fill="#E4897B"/>
<path d="M38.1332 155.473L35.4345 152.757C35.3884 152.71 35.3266 152.681 35.2607 152.676C35.1948 152.672 35.1295 152.691 35.077 152.731L32.6224 154.567C32.5625 154.615 32.5135 154.675 32.4785 154.744C32.4435 154.813 32.4232 154.888 32.4191 154.965C32.415 155.041 32.4271 155.118 32.4546 155.19C32.4821 155.262 32.5244 155.327 32.5788 155.382C33.5336 156.311 34.0437 156.712 35.2296 157.906C35.9577 158.643 36.9474 159.79 37.9545 160.806C38.9616 161.821 40.0167 160.875 39.6984 160.37C38.2248 158.072 38.4907 157.213 38.3905 156.045C38.3757 155.83 38.2844 155.627 38.1332 155.473Z" fill="#263238"/>
<path d="M61.9903 165H58.1623C58.095 165 58.0298 165.023 57.978 165.066C57.9262 165.109 57.8912 165.169 57.8789 165.235L57.2729 168.261C57.2589 168.337 57.2625 168.416 57.2834 168.491C57.3044 168.566 57.3421 168.636 57.3937 168.694C57.4454 168.753 57.5096 168.798 57.5816 168.828C57.6536 168.858 57.7314 168.871 57.8092 168.867C59.1433 168.845 59.7929 168.767 61.4758 168.767C62.5091 168.767 65.3997 168.871 66.8428 168.871C68.2859 168.871 68.4297 167.459 67.8412 167.332C65.2035 166.757 63.4247 165.968 62.5658 165.209C62.407 165.069 62.2016 164.995 61.9903 165Z" fill="#263238"/>
<path d="M63.0017 157.671L62.3128 162.013L58.9645 161.451L59.6054 157.422L63.0017 157.671Z" fill="#CE6F64"/>
<path d="M39.4717 148.223L42.3535 150.037L40.2303 152.557L37.2831 150.817L39.4717 148.223Z" fill="#CE6F64"/>
<path d="M60.9482 86.6098L74.5247 89.2563C81.5397 70.2605 80.0137 69.637 80.0137 69.637C79.0271 69.0949 78.0079 68.6144 76.9618 68.1983L76.7787 68.1285C75.9068 67.8102 75.7324 67.7623 74.5726 67.4222C72.5758 66.947 70.7142 66.5502 68.4078 66.2233L67.9719 66.1622C67.5359 66.1099 67.1391 66.0663 66.738 66.0271C66.4677 65.9965 66.1974 65.9791 65.9402 65.9617L65.0682 65.9137C63.5771 65.8396 62.509 65.8614 62.509 65.8614C62.9232 77.7245 62.2518 81.1295 60.9482 86.6098Z" fill="#263238"/>
<path d="M70.3699 59.4088C70.3699 61.4667 70.0516 65.1769 68.4036 66.232C68.4036 66.232 68.5562 68.3508 72.2403 69.0658C76.2949 69.855 74.5684 67.4309 74.5684 67.4309C72.4626 66.4717 72.8245 64.8412 73.522 63.3763L70.3699 59.4088Z" fill="#E4897B"/>
<path d="M71.656 61.0262L73.522 63.3762C73.3585 63.7158 73.2244 64.0688 73.1209 64.4313C72.2969 64.1435 71.316 62.9925 71.377 62.09C71.4048 61.7215 71.4994 61.361 71.656 61.0262Z" fill="#CE6F64"/>
<path d="M70.1737 54.6827C69.7378 58.0354 69.4718 59.4437 70.8146 61.471C72.8332 64.5229 77.0448 64.3267 78.4792 61.1745C79.7872 58.3363 80.2755 53.3268 77.289 51.3867C76.6333 50.9536 75.8779 50.6954 75.0943 50.6366C74.3108 50.5778 73.5252 50.7202 72.8122 51.0505C72.0993 51.3808 71.4826 51.8879 71.0208 52.5236C70.559 53.1593 70.2674 53.9026 70.1737 54.6827Z" fill="#E4897B"/>
<path d="M81.0864 49.3725C81.1473 49.9042 81.1073 50.4426 80.9687 50.9594C80.9369 50.7841 80.8947 50.6109 80.8422 50.4406C79.6476 46.4906 74.2676 47.4323 72.6457 49.1327C70.0298 48.3828 67.5404 48.9801 67.8717 52.1846C67.9131 53.0102 68.2102 53.8024 68.7219 54.4517C68.3164 55.5765 68.7219 57.3684 70.0603 57.4207C71.9438 57.4948 73.7313 55.001 74.4507 53.632C75.7586 53.8544 77.6421 54.068 79.0721 53.7192C79.3119 53.8631 79.5081 53.9634 79.5081 53.9634C81.0297 53.1481 82.1894 52.359 81.0864 49.3725Z" fill="#263238"/>
<path d="M69.0138 56.9716C68.9605 57.6222 69.1657 58.2676 69.585 58.7679C70.1518 59.4262 70.8929 59.0382 71.1589 58.2578C71.3812 57.5515 71.3507 56.3613 70.5921 55.9907C70.425 55.9121 70.2408 55.8766 70.0564 55.8874C69.8721 55.8982 69.6933 55.9549 69.5365 56.0524C69.3796 56.1499 69.2496 56.285 69.1583 56.4456C69.0671 56.6062 69.0174 56.787 69.0138 56.9716Z" fill="#E4897B"/>
<path d="M74.3199 89.2563C74.3199 89.2563 74.3722 116.209 72.1661 126.359C69.8728 136.918 63.1282 160.941 63.1282 160.941L58.2451 160.309C58.2451 160.309 62.0687 136.042 63.6949 125.548C65.4694 114.112 64.3838 87.3206 64.3838 87.3206L74.3199 89.2563Z" fill="#DEDEDE"/>
<path opacity="0.3" d="M74.3199 89.2563C74.3199 89.2563 74.3722 116.209 72.1661 126.359C69.8728 136.918 63.1282 160.941 63.1282 160.941L58.2451 160.309C58.2451 160.309 62.0687 136.042 63.6949 125.548C65.4694 114.112 64.3838 87.3206 64.3838 87.3206L74.3199 89.2563Z" fill="black"/>
<path d="M63.9608 161.364L57.408 160.518L57.687 158.198L65.1249 159.07L63.9608 161.364Z" fill="#263238"/>
<path d="M70.941 88.5587C70.941 88.5587 63.6296 110.833 59.9978 123.664C56.1699 137.201 41.4947 152.173 41.4947 152.173L37.2875 149.74C37.2875 149.74 47.3151 135.527 50.9991 122.897C58.5024 97.2566 55.42 91.8242 60.9483 86.6099L70.941 88.5587Z" fill="#DEDEDE"/>
<path opacity="0.3" d="M70.941 88.5587C70.941 88.5587 63.6296 110.833 59.9978 123.664C56.1699 137.201 41.4947 152.173 41.4947 152.173L37.2875 149.74C37.2875 149.74 47.3151 135.527 50.9991 122.897C58.5024 97.2566 55.42 91.8242 60.9483 86.6099L70.941 88.5587Z" fill="black"/>
<path d="M42.1791 152.849L36.3326 149.474L37.7888 147.39L44.2806 150.97L42.1791 152.849Z" fill="#263238"/>
<path d="M75.0131 56.588C74.9608 56.8583 75.0611 57.1025 75.2398 57.1374C75.4186 57.1722 75.6017 56.9804 75.6758 56.7014C75.7499 56.4223 75.6279 56.1826 75.4491 56.1477C75.2703 56.1128 75.0654 56.3177 75.0131 56.588Z" fill="#263238"/>
<path d="M78.0606 57.181C78.0083 57.4513 78.1086 57.6998 78.2874 57.7347C78.4661 57.7695 78.6492 57.5777 78.7015 57.2987C78.7539 57.0197 78.6536 56.7799 78.4748 56.7493C78.2961 56.7188 78.113 56.9063 78.0606 57.181Z" fill="#263238"/>
<path d="M78.3963 56.7537L79.0808 56.697C79.0808 56.697 78.6491 57.1373 78.3963 56.7537Z" fill="#263238"/>
<path d="M77.1668 57.4905C77.2871 58.1515 77.4984 58.7927 77.7946 59.3957C77.6384 59.4689 77.468 59.5068 77.2954 59.5068C77.1229 59.5068 76.9525 59.4689 76.7962 59.3957L77.1668 57.4905Z" fill="#DE5753"/>
<path d="M75.6539 60.2678C75.2895 60.2081 74.9449 60.0612 74.6496 59.8395C74.3543 59.6178 74.117 59.3279 73.9579 58.9947C73.9537 58.985 73.9515 58.9745 73.9514 58.9639C73.9513 58.9533 73.9533 58.9428 73.9574 58.933C73.9615 58.9233 73.9675 58.9144 73.9751 58.907C73.9826 58.8996 73.9916 58.8939 74.0015 58.89C74.0212 58.8826 74.043 58.883 74.0625 58.8911C74.0819 58.8992 74.0975 58.9144 74.1062 58.9336C74.2584 59.2399 74.4806 59.5061 74.7548 59.7105C75.029 59.915 75.3474 60.0522 75.6844 60.1108C75.6948 60.1124 75.7047 60.116 75.7137 60.1215C75.7226 60.127 75.7304 60.1342 75.7365 60.1428C75.7425 60.1513 75.7469 60.161 75.7492 60.1712C75.7515 60.1814 75.7517 60.192 75.7498 60.2023C75.7456 60.2236 75.7332 60.2424 75.7152 60.2547C75.6973 60.2669 75.6753 60.2716 75.6539 60.2678Z" fill="#263238"/>
<path d="M74.3198 55.4283C74.2876 55.4281 74.2562 55.4181 74.2296 55.3998C74.2031 55.3816 74.1826 55.3557 74.1709 55.3257C74.1591 55.2957 74.1567 55.2628 74.1638 55.2314C74.1709 55.1999 74.1873 55.1713 74.2108 55.1493C74.3978 54.974 74.6239 54.8458 74.8703 54.7753C75.1167 54.7047 75.3764 54.694 75.6278 54.7438C75.669 54.756 75.7039 54.7837 75.725 54.8212C75.7462 54.8586 75.752 54.9028 75.7411 54.9444C75.7299 54.9853 75.703 55.0201 75.6663 55.0413C75.6296 55.0625 75.586 55.0684 75.5449 55.0577C75.3453 55.0223 75.1401 55.0338 74.9457 55.0913C74.7512 55.1488 74.5728 55.2508 74.4245 55.3891C74.3956 55.4146 74.3583 55.4285 74.3198 55.4283Z" fill="#263238"/>
<path d="M79.7522 56.0343C79.7202 56.0347 79.6889 56.0253 79.6624 56.0074C79.6359 55.9895 79.6155 55.9639 79.604 55.9341C79.5292 55.7452 79.4115 55.5764 79.2601 55.4409C79.1088 55.3054 78.9279 55.2071 78.732 55.1536C78.7111 55.15 78.6911 55.1422 78.6732 55.1308C78.6553 55.1193 78.6398 55.1045 78.6276 55.0871C78.6155 55.0697 78.6069 55.05 78.6024 55.0293C78.5978 55.0085 78.5974 54.9871 78.6012 54.9662C78.6106 54.925 78.635 54.8887 78.6697 54.8646C78.7043 54.8404 78.7467 54.83 78.7887 54.8354C79.0374 54.8975 79.2676 55.0181 79.4602 55.1872C79.6529 55.3564 79.8023 55.5691 79.8961 55.8076C79.9046 55.8273 79.9092 55.8486 79.9094 55.8701C79.9096 55.8916 79.9056 55.9129 79.8974 55.9328C79.8893 55.9527 79.8773 55.9708 79.8621 55.986C79.8469 56.0011 79.8288 56.0131 79.8089 56.0212L79.7522 56.0343Z" fill="#263238"/>
<path d="M75.3793 58.9771C75.2443 58.9776 75.111 58.9468 74.99 58.887C74.8689 58.8273 74.7634 58.7402 74.6817 58.6327C74.4767 58.3129 74.3399 57.9542 74.2799 57.5791C74.2199 57.204 74.2379 56.8206 74.3329 56.4528C74.5815 55.0751 75.4447 53.9546 76.26 53.9546C76.3957 53.9562 76.5293 53.9884 76.6508 54.0488C76.7723 54.1092 76.8787 54.1962 76.9619 54.3034C77.1662 54.6235 77.3026 54.9821 77.3626 55.3571C77.4226 55.7321 77.405 56.1154 77.3107 56.4833C77.0622 57.861 76.1946 58.9771 75.3793 58.9771ZM76.2513 54.0767C75.4883 54.0767 74.6687 55.1579 74.4289 56.4833C74.2763 57.3553 74.3983 58.14 74.7558 58.5629C74.8285 58.6571 74.9216 58.7334 75.0281 58.7863C75.1346 58.8392 75.2517 58.8672 75.3706 58.8681C76.1379 58.8681 76.9532 57.7913 77.193 56.4659H77.2453H77.193C77.2855 56.1155 77.3042 55.7497 77.2479 55.3917C77.1917 55.0337 77.0616 54.6913 76.866 54.3862C76.7945 54.2927 76.7029 54.2163 76.5981 54.1628C76.4932 54.1092 76.3777 54.0798 76.26 54.0767H76.2513Z" fill="#FAFAFA"/>
<path d="M78.7669 59.4131C78.6259 59.4102 78.4874 59.3758 78.3614 59.3124C78.2354 59.2491 78.1252 59.1583 78.0388 59.0469C77.8431 58.7534 77.7106 58.4223 77.6498 58.0748C77.589 57.7272 77.6012 57.3708 77.6857 57.0283C77.908 55.7465 78.7451 54.7089 79.5517 54.7089C79.693 54.7123 79.8318 54.7474 79.9578 54.8115C80.0838 54.8756 80.1938 54.9672 80.2798 55.0794C80.4742 55.3728 80.6059 55.7031 80.6667 56.0497C80.7274 56.3963 80.716 56.7517 80.6329 57.0937C80.4149 58.3798 79.5779 59.4131 78.7669 59.4131ZM79.5386 54.8179C78.78 54.8179 77.9952 55.8163 77.7947 57.0501C77.7162 57.377 77.7051 57.7164 77.7621 58.0477C77.8191 58.379 77.9429 58.6952 78.126 58.9771C78.2027 59.076 78.3004 59.1566 78.4119 59.2131C78.5235 59.2696 78.6462 59.3007 78.7713 59.3041C79.5299 59.3041 80.319 58.3101 80.5152 57.0763C80.5933 56.7496 80.6046 56.4105 80.5484 56.0794C80.4922 55.7482 80.3697 55.4318 80.1882 55.1492C80.112 55.0496 80.0145 54.9682 79.9029 54.9108C79.7913 54.8535 79.6684 54.8218 79.543 54.8179H79.5386Z" fill="#FAFAFA"/>
<path d="M39.136 157.056C38.7 157.056 38.2422 156.385 38.0068 155.997C37.9982 155.984 37.9936 155.968 37.9936 155.953C37.9936 155.937 37.9982 155.922 38.0068 155.909C38.0164 155.897 38.0291 155.887 38.0436 155.881C38.0581 155.875 38.074 155.873 38.0896 155.875C38.2291 155.905 39.4281 156.167 39.5807 156.576C39.598 156.622 39.6027 156.671 39.5943 156.718C39.5858 156.766 39.5646 156.81 39.5327 156.847C39.4898 156.912 39.4309 156.966 39.3614 157.003C39.292 157.039 39.2144 157.058 39.136 157.056ZM38.2248 156.075C38.5605 156.581 38.8875 156.882 39.1229 156.895C39.1752 156.895 39.2267 156.882 39.2725 156.857C39.3183 156.832 39.3569 156.795 39.3845 156.751C39.3992 156.735 39.4091 156.716 39.413 156.695C39.4169 156.674 39.4145 156.653 39.4063 156.633C39.3278 156.415 38.7044 156.197 38.2248 156.075Z" fill="#DEDEDE"/>
<path d="M38.4209 156.075C38.2888 156.077 38.157 156.062 38.0285 156.031C38.0154 156.027 38.0035 156.019 37.9937 156.01C37.9839 156 37.9764 155.988 37.9719 155.975C37.9617 155.95 37.9617 155.921 37.9719 155.896C38.0024 155.87 38.6694 155.212 39.1621 155.212H39.197C39.258 155.216 39.3175 155.233 39.3716 155.261C39.4256 155.29 39.4731 155.329 39.5109 155.377C39.5553 155.424 39.5829 155.484 39.5893 155.548C39.5956 155.612 39.5803 155.676 39.5458 155.731C39.4063 155.966 38.8482 156.075 38.4209 156.075ZM38.2247 155.905C38.6346 155.953 39.2973 155.835 39.4324 155.639C39.4542 155.609 39.4717 155.561 39.4063 155.478C39.3835 155.446 39.3534 155.419 39.3186 155.401C39.2837 155.383 39.245 155.373 39.2057 155.373C38.8316 155.445 38.489 155.631 38.2247 155.905Z" fill="#DEDEDE"/>
<path d="M63.2415 165.597C62.8807 165.587 62.5217 165.543 62.169 165.466C62.1523 165.463 62.137 165.454 62.1252 165.442C62.1135 165.429 62.106 165.413 62.1036 165.396C62.1017 165.38 62.1048 165.363 62.1126 165.348C62.1204 165.333 62.1325 165.321 62.1472 165.314C62.3085 165.235 63.708 164.537 64.1135 164.773C64.1504 164.796 64.1809 164.828 64.2023 164.866C64.2236 164.904 64.235 164.947 64.2356 164.991C64.2406 165.064 64.2278 165.138 64.1982 165.206C64.1685 165.273 64.1231 165.333 64.0656 165.379C63.8229 165.542 63.5329 165.618 63.2415 165.597ZM62.4437 165.362C63.1892 165.484 63.7516 165.453 63.9696 165.266C64.0068 165.233 64.0359 165.193 64.0549 165.148C64.0738 165.102 64.0819 165.053 64.0786 165.004C64.0795 164.988 64.0759 164.971 64.0682 164.957C64.0605 164.942 64.0491 164.93 64.035 164.921C63.817 164.795 63.041 165.091 62.4437 165.362Z" fill="#DEDEDE"/>
<path d="M62.1909 165.466C62.1752 165.471 62.1586 165.471 62.1429 165.466C62.1301 165.458 62.12 165.446 62.1138 165.432C62.1076 165.418 62.1056 165.403 62.1081 165.388C62.1081 165.327 62.3173 163.94 63.076 163.94H63.1414C63.3593 163.962 63.4204 164.071 63.4335 164.163C63.4945 164.546 62.6487 165.287 62.2214 165.471L62.1909 165.466ZM63.0629 164.088C62.5702 164.088 62.3522 164.891 62.2781 165.239C62.7141 164.982 63.2939 164.402 63.2591 164.171C63.2591 164.171 63.2591 164.101 63.1065 164.088H63.0629Z" fill="#DEDEDE"/>
<path d="M75.3489 56.1608L76.0334 56.0997C76.0334 56.0997 75.6018 56.5444 75.3489 56.1608Z" fill="#263238"/>
<path d="M72.3536 71.9651C66.6858 69.8157 64.9157 66.5981 65.0508 65.9224L65.9228 65.9747H66.071C66.2803 65.9747 66.507 66.0052 66.7207 66.0314C67.1218 66.0662 67.5359 66.1098 67.9545 66.1665L68.3905 66.2276C70.4714 66.4795 72.5316 66.8802 74.5553 67.4265C75.4796 67.6968 75.7848 67.784 76.2992 67.9671L76.757 68.1328L76.9401 68.2026C77.3935 69.1792 77.2933 71.176 72.3536 71.9651Z" fill="#E4897B"/>
<path d="M72.3536 71.9651C66.6858 69.8157 64.9157 66.5981 65.0508 65.9224L65.9228 65.9747H66.071C67.222 67.6096 69.742 69.868 72.31 70.1776C74.3765 69.7416 76.3254 69.2446 76.3079 67.9671L76.7657 68.1328L76.9488 68.2026C77.3935 69.1792 77.2933 71.176 72.3536 71.9651Z" fill="#DEDEDE"/>
<path opacity="0.3" d="M72.3536 71.9651C66.6858 69.8157 64.9157 66.5981 65.0508 65.9224L65.9228 65.9747H66.071C67.222 67.6096 69.742 69.868 72.31 70.1776C74.3765 69.7416 76.3254 69.2446 76.3079 67.9671L76.7657 68.1328L76.9488 68.2026C77.3935 69.1792 77.2933 71.176 72.3536 71.9651Z" fill="black"/>
<path d="M60.9003 85.7728L60.0284 86.8715C59.963 86.9543 60.0589 87.072 60.2158 87.1025L74.455 89.8754C74.5771 89.9015 74.6905 89.8754 74.7123 89.7838L75.0698 88.5936C75.0959 88.5107 75.0044 88.4192 74.8692 88.393L61.1183 85.7161C61.0801 85.7081 61.0405 85.709 61.0027 85.7188C60.9648 85.7287 60.9298 85.7471 60.9003 85.7728Z" fill="#263238"/>
<path d="M62.448 87.6693L62.0817 87.5995C62.0076 87.5995 61.9597 87.5385 61.9727 87.4905L62.4523 85.9471C62.4523 85.8992 62.5395 85.8774 62.6093 85.8905L62.9799 85.9602C63.054 85.9602 63.1019 86.0256 63.0889 86.0692L62.6093 87.617C62.5919 87.6422 62.5666 87.661 62.5375 87.6704C62.5083 87.6799 62.4769 87.6795 62.448 87.6693Z" fill="#DEDEDE"/>
<path opacity="0.3" d="M62.448 87.6693L62.0817 87.5995C62.0076 87.5995 61.9597 87.5385 61.9727 87.4905L62.4523 85.9471C62.4523 85.8992 62.5395 85.8774 62.6093 85.8905L62.9799 85.9602C63.054 85.9602 63.1019 86.0256 63.0889 86.0692L62.6093 87.617C62.5919 87.6422 62.5666 87.661 62.5375 87.6704C62.5083 87.6799 62.4769 87.6795 62.448 87.6693Z" fill="black"/>
<path d="M63.416 71.1236C63.2503 72.1569 63.0933 73.3036 62.98 74.3761C62.8666 75.4486 62.7663 76.556 62.714 77.6721C62.685 78.2215 62.6675 78.7708 62.6617 79.3201C62.6617 79.8651 62.6617 80.4101 62.6617 80.9551C62.6833 82.0228 62.7662 83.0883 62.9102 84.1465C62.9925 84.5088 63.1402 84.8531 63.3462 85.1623C63.6072 85.5869 63.8986 85.992 64.2182 86.3743C64.9152 87.2011 65.6606 87.9858 66.4504 88.7243C67.2483 89.4916 68.0853 90.2328 68.9442 90.9565C69.8031 91.6803 70.6882 92.3996 71.5601 93.0928L70.6228 94.5403C68.571 93.4157 66.609 92.1345 64.7544 90.708C63.797 89.9747 62.8936 89.1733 62.0513 88.3101C61.6022 87.8472 61.1897 87.3501 60.8175 86.8234C60.357 86.2005 60.0291 85.4897 59.854 84.735L59.6927 83.8108C59.636 83.5099 59.5968 83.2091 59.5619 82.9126C59.4747 82.311 59.4267 81.7137 59.3788 81.1164C59.2881 79.9285 59.2604 78.7365 59.2959 77.5457C59.3308 76.3642 59.3962 75.187 59.5139 74.0142C59.6316 72.8414 59.7799 71.6904 60.0153 70.4784L63.416 71.1236Z" fill="#E4897B"/>
<path d="M60.5211 66.7725C58.6551 68.281 59.0998 72.7629 59.0998 72.7629L65.3779 74.8295C65.3779 74.8295 65.0902 69.6631 64.785 67.8058C64.41 65.5954 62.3522 65.2858 60.5211 66.7725Z" fill="#263238"/>
<path d="M70.7927 92.8139L73.631 91.7588L73.195 94.4575C73.195 94.4575 71.1371 95.1987 70.082 94.2482L70.7927 92.8139Z" fill="#E4897B"/>
<path d="M77.0099 92.1599V94.2439L73.195 94.4575L73.631 91.7588L77.0099 92.1599Z" fill="#E4897B"/>
<path d="M73.4131 89.8056L73.0469 89.7359C72.9728 89.7359 72.9248 89.6748 72.9379 89.6269L73.4175 88.0835C73.4175 88.0355 73.5047 88.0137 73.5788 88.0268L73.945 88.0966C74.0192 88.0966 74.0671 88.162 74.054 88.2056L73.5745 89.7533C73.5614 89.7969 73.5047 89.8231 73.4131 89.8056Z" fill="#DEDEDE"/>
<path opacity="0.3" d="M73.4131 89.8056L73.0469 89.7359C72.9728 89.7359 72.9248 89.6748 72.9379 89.6269L73.4175 88.0835C73.4175 88.0355 73.5047 88.0137 73.5788 88.0268L73.945 88.0966C74.0192 88.0966 74.0671 88.162 74.054 88.2056L73.5745 89.7533C73.5614 89.7969 73.5047 89.8231 73.4131 89.8056Z" fill="black"/>
<path d="M67.9327 88.7331L67.5621 88.6634C67.488 88.6634 67.44 88.6023 67.4575 88.5544L67.9371 87.011C67.9371 86.963 68.0199 86.9412 68.094 86.9543L68.4646 87.0241C68.5344 87.0241 68.5867 87.0895 68.5692 87.1331L68.0897 88.6808C68.0766 88.7331 68.0068 88.7549 67.9327 88.7331Z" fill="#DEDEDE"/>
<path opacity="0.3" d="M67.9327 88.7331L67.5621 88.6634C67.488 88.6634 67.44 88.6023 67.4575 88.5544L67.9371 87.011C67.9371 86.963 68.0199 86.9412 68.094 86.9543L68.4646 87.0241C68.5344 87.0241 68.5867 87.0895 68.5692 87.1331L68.0897 88.6808C68.0766 88.7331 68.0068 88.7549 67.9327 88.7331Z" fill="black"/>
<path d="M40.1649 114.155L62.7662 163.517C63.2844 164.639 64.2253 165.51 65.3836 165.941C66.5419 166.371 67.8235 166.326 68.9485 165.815L72.5366 164.176L155.622 126.136C156.744 125.62 157.617 124.68 158.048 123.522C158.479 122.365 158.435 121.083 157.924 119.958L137.952 76.3599L135.336 70.6005C134.817 69.4795 133.876 68.6089 132.718 68.1786C131.56 67.7482 130.279 67.7929 129.153 68.3029L42.4756 107.977C41.3533 108.494 40.4807 109.433 40.0479 110.59C39.615 111.748 39.6571 113.029 40.1649 114.155Z" fill="#DEDEDE"/>
<path opacity="0.1" d="M40.1649 114.155L62.7662 163.517C63.2844 164.639 64.2253 165.51 65.3836 165.941C66.5419 166.371 67.8235 166.326 68.9485 165.815L72.5366 164.176L155.622 126.136C156.744 125.62 157.617 124.68 158.048 123.522C158.479 122.365 158.435 121.083 157.924 119.958L137.952 76.3599L135.336 70.6005C134.817 69.4795 133.876 68.6089 132.718 68.1786C131.56 67.7482 130.279 67.7929 129.153 68.3029L42.4756 107.977C41.3533 108.494 40.4807 109.433 40.0479 110.59C39.615 111.748 39.6571 113.029 40.1649 114.155Z" fill="white"/>
<path d="M60.4748 158.512L155.63 114.947L144.493 90.623L49.3385 134.188L60.4748 158.512Z" fill="#DEDEDE"/>
<path opacity="0.3" d="M60.4748 158.512L155.63 114.947L144.493 90.623L49.3385 134.188L60.4748 158.512Z" fill="white"/>
<path d="M84.4061 138.11L144.538 110.58L140.552 101.875L80.4206 129.405L84.4061 138.11Z" fill="#DEDEDE"/>
<path opacity="0.8" d="M84.4061 138.11L144.538 110.58L140.552 101.875L80.4206 129.405L84.4061 138.11Z" fill="white"/>
<path d="M51.4629 138.838L146.618 95.2728L140.676 82.2943L45.5208 125.86L51.4629 138.838Z" fill="#DEDEDE"/>
<path opacity="0.3" d="M51.4629 138.838L146.618 95.2728L140.676 82.2943L45.5208 125.86L51.4629 138.838Z" fill="black"/>
<g style="mix-blend-mode:multiply">
<path d="M53.0875 114.774L72.5367 164.158L155.622 126.119C156.744 125.602 157.617 124.662 158.048 123.505C158.479 122.347 158.435 121.066 157.924 119.941L137.952 76.3424L55.7208 108.727C54.5722 109.183 53.6506 110.075 53.1572 111.208C52.6638 112.341 52.6387 113.623 53.0875 114.774Z" fill="#DEDEDE"/>
</g>
<path d="M163.06 99.165L162.649 99.3096L163.33 101.247L163.741 101.102L163.06 99.165Z" fill="#DEDEDE"/>
<path opacity="0.1" d="M163.06 99.165L162.649 99.3096L163.33 101.247L163.741 101.102L163.06 99.165Z" fill="white"/>
<path d="M159.624 89.4227L159.213 89.5671L161.894 97.2019L162.305 97.0574L159.624 89.4227Z" fill="#DEDEDE"/>
<path opacity="0.1" d="M159.624 89.4227L159.213 89.5671L161.894 97.2019L162.305 97.0574L159.624 89.4227Z" fill="white"/>
<path d="M58.873 108.897L148.816 77.3103C149.983 76.9043 151.263 76.9767 152.377 77.5118C153.491 78.047 154.347 79.0013 154.759 80.166L172.748 131.39C173.154 132.557 173.082 133.837 172.548 134.951C172.014 136.065 171.061 136.923 169.896 137.337L79.9528 168.924C78.7853 169.329 77.5051 169.256 76.3911 168.721C75.2771 168.186 74.4198 167.232 74.006 166.068L56.0173 114.844C55.6111 113.677 55.6834 112.396 56.2185 111.282C56.7536 110.167 57.7079 109.31 58.873 108.897Z" fill="#DEDEDE"/>
<path opacity="0.1" d="M58.873 108.897L148.816 77.3103C149.983 76.9043 151.263 76.9767 152.377 77.5118C153.491 78.047 154.347 79.0013 154.759 80.166L172.748 131.39C173.154 132.557 173.082 133.837 172.548 134.951C172.014 136.065 171.061 136.923 169.896 137.337L79.9528 168.924C78.7853 169.329 77.5051 169.256 76.3911 168.721C75.2771 168.186 74.4198 167.232 74.006 166.068L56.0173 114.844C55.6111 113.677 55.6834 112.396 56.2185 111.282C56.7536 110.167 57.7079 109.31 58.873 108.897Z" fill="white"/>
<path d="M70.7279 156.727L169.47 122.051L161.644 99.7683L62.9026 134.444L70.7279 156.727Z" fill="#DEDEDE"/>
<path opacity="0.3" d="M70.7279 156.727L169.47 122.051L161.644 99.7683L62.9026 134.444L70.7279 156.727Z" fill="white"/>
<path d="M130.53 99.2735L150.942 92.1055L149.825 88.9257L129.414 96.0937L130.53 99.2735Z" fill="#DEDEDE"/>
<path opacity="0.8" d="M130.53 99.2735L150.942 92.1055L149.825 88.9257L129.414 96.0937L130.53 99.2735Z" fill="white"/>
<path d="M147.708 135.276L164.084 129.526L163.501 127.864L147.125 133.615L147.708 135.276Z" fill="#DEDEDE"/>
<path opacity="0.8" d="M147.708 135.276L164.084 129.526L163.501 127.864L147.125 133.615L147.708 135.276Z" fill="white"/>
<path d="M144.097 140.117L165.2 132.707L164.616 131.045L143.514 138.456L144.097 140.117Z" fill="#DEDEDE"/>
<path opacity="0.8" d="M144.097 140.117L165.2 132.707L164.616 131.045L143.514 138.456L144.097 140.117Z" fill="white"/>
<path d="M80.0756 162.601L90.6269 158.895L89.3716 155.321L78.8203 159.026L80.0756 162.601Z" fill="#DEDEDE"/>
<path opacity="0.8" d="M80.0756 162.601L90.6269 158.895L89.3716 155.321L78.8203 159.026L80.0756 162.601Z" fill="white"/>
<path d="M145.786 124.702L158.107 120.377C158.757 120.146 159.289 119.667 159.588 119.046C159.886 118.425 159.928 117.711 159.703 117.059C159.472 116.409 158.993 115.877 158.372 115.579C157.751 115.28 157.037 115.238 156.385 115.463L144.06 119.792C143.41 120.024 142.878 120.502 142.579 121.123C142.281 121.744 142.239 122.459 142.464 123.11C142.696 123.76 143.175 124.292 143.798 124.59C144.42 124.888 145.135 124.928 145.786 124.702Z" fill="#DEDEDE"/>
<path d="M124.68 132.113L137.006 127.784C137.65 127.552 138.178 127.076 138.476 126.459C138.773 125.842 138.817 125.133 138.597 124.484C138.365 123.835 137.886 123.304 137.265 123.006C136.644 122.708 135.93 122.667 135.279 122.892L122.958 127.222C122.309 127.453 121.777 127.931 121.478 128.552C121.179 129.174 121.138 129.888 121.363 130.54C121.598 131.185 122.078 131.712 122.699 132.006C123.32 132.301 124.031 132.339 124.68 132.113Z" fill="#DEDEDE"/>
<path d="M103.587 139.525L115.913 135.196C116.556 134.962 117.082 134.485 117.377 133.869C117.673 133.252 117.716 132.543 117.495 131.895C117.263 131.247 116.785 130.716 116.164 130.418C115.542 130.12 114.829 130.079 114.177 130.304L101.844 134.616C101.195 134.848 100.664 135.327 100.366 135.948C100.068 136.569 100.027 137.283 100.252 137.934C100.484 138.587 100.965 139.121 101.591 139.419C102.216 139.718 102.934 139.756 103.587 139.525Z" fill="#DEDEDE"/>
<path d="M82.4727 146.937L94.7979 142.608C95.4433 142.376 95.9722 141.901 96.2706 141.284C96.569 140.666 96.6132 139.957 96.3936 139.307C96.1616 138.658 95.683 138.127 95.0618 137.83C94.4406 137.532 93.7269 137.491 93.0758 137.716L80.7505 142.045C80.101 142.276 79.569 142.755 79.2702 143.376C78.9714 143.997 78.9299 144.711 79.1548 145.363C79.3903 146.009 79.8703 146.535 80.4912 146.83C81.112 147.125 81.8238 147.163 82.4727 146.937Z" fill="#DEDEDE"/>
<g opacity="0.8">
<path opacity="0.8" d="M145.786 124.702L158.107 120.377C158.757 120.146 159.289 119.667 159.587 119.046C159.886 118.425 159.928 117.711 159.703 117.059C159.472 116.409 158.993 115.877 158.372 115.579C157.751 115.28 157.037 115.238 156.385 115.463L144.06 119.792C143.41 120.024 142.878 120.502 142.579 121.123C142.281 121.744 142.239 122.459 142.464 123.11C142.696 123.76 143.175 124.292 143.798 124.59C144.42 124.888 145.135 124.928 145.786 124.702Z" fill="white"/>
<path opacity="0.8" d="M124.68 132.113L137.005 127.784C137.65 127.552 138.178 127.076 138.475 126.459C138.773 125.842 138.817 125.133 138.597 124.484C138.365 123.835 137.886 123.304 137.265 123.006C136.644 122.708 135.93 122.667 135.279 122.892L122.958 127.222C122.309 127.453 121.777 127.931 121.478 128.552C121.179 129.174 121.137 129.888 121.362 130.54C121.598 131.185 122.078 131.712 122.699 132.006C123.319 132.301 124.031 132.339 124.68 132.113Z" fill="white"/>
<path opacity="0.8" d="M103.587 139.525L115.913 135.196C116.556 134.962 117.081 134.486 117.377 133.869C117.673 133.252 117.715 132.543 117.495 131.895C117.263 131.247 116.785 130.716 116.163 130.418C115.542 130.12 114.828 130.079 114.177 130.304L101.843 134.616C101.195 134.848 100.664 135.327 100.366 135.948C100.068 136.569 100.027 137.283 100.252 137.934C100.484 138.587 100.965 139.121 101.591 139.419C102.216 139.718 102.934 139.756 103.587 139.525Z" fill="white"/>
<path opacity="0.8" d="M82.4727 146.937L94.7979 142.608C95.4433 142.376 95.9722 141.901 96.2706 141.284C96.569 140.666 96.6132 139.957 96.3936 139.307C96.1616 138.658 95.683 138.127 95.0618 137.83C94.4406 137.532 93.7269 137.491 93.0758 137.716L80.7505 142.045C80.101 142.276 79.569 142.755 79.2702 143.376C78.9714 143.997 78.9299 144.711 79.1548 145.363C79.3903 146.009 79.8703 146.536 80.4912 146.83C81.112 147.125 81.8238 147.163 82.4727 146.937Z" fill="white"/>
</g>
<path d="M144.689 114.786L155.656 110.934C156.588 110.607 157.078 109.587 156.75 108.655L154.465 102.148C154.138 101.216 153.118 100.726 152.186 101.054L141.22 104.905C140.288 105.232 139.798 106.252 140.125 107.184L142.411 113.691C142.738 114.623 143.758 115.113 144.689 114.786Z" fill="#DEDEDE"/>
<path opacity="0.3" d="M144.689 114.786L155.656 110.934C156.588 110.607 157.078 109.587 156.75 108.655L154.465 102.148C154.138 101.216 153.118 100.726 152.186 101.054L141.22 104.905C140.288 105.232 139.798 106.252 140.125 107.184L142.411 113.691C142.738 114.623 143.758 115.113 144.689 114.786Z" fill="black"/>
<path d="M80.0443 121.523C78.4622 121.524 76.9376 120.93 75.7723 119.86C74.6071 118.79 73.8862 117.321 73.7523 115.744C73.6184 114.168 74.0813 112.599 75.0494 111.347C76.0175 110.096 77.4201 109.254 78.9796 108.987C80.5391 108.721 82.1419 109.05 83.4705 109.909C84.799 110.768 85.7567 112.094 86.1537 113.626C86.5508 115.157 86.3583 116.782 85.6144 118.178C84.8706 119.575 83.6295 120.641 82.137 121.166C81.4647 121.403 80.7571 121.524 80.0443 121.523ZM80.0443 109.316C79.3747 109.317 78.7101 109.431 78.078 109.651C76.597 110.172 75.3833 111.26 74.7039 112.675C74.0245 114.09 73.9349 115.717 74.455 117.198C74.8154 118.221 75.4501 119.125 76.2896 119.812C77.1291 120.498 78.1412 120.941 79.2153 121.091C80.2893 121.242 81.384 121.094 82.3797 120.664C83.3754 120.234 84.2338 119.539 84.8611 118.654C85.4884 117.769 85.8605 116.729 85.9367 115.648C86.0128 114.566 85.7902 113.484 85.293 112.52C84.7958 111.556 84.0433 110.747 83.1176 110.182C82.192 109.617 81.1288 109.317 80.0443 109.316Z" fill="#DEDEDE"/>
<path opacity="0.8" d="M80.0443 121.523C78.4622 121.524 76.9376 120.93 75.7723 119.86C74.6071 118.79 73.8862 117.321 73.7523 115.744C73.6184 114.168 74.0813 112.599 75.0494 111.347C76.0175 110.096 77.4201 109.254 78.9796 108.987C80.5391 108.721 82.1419 109.05 83.4705 109.909C84.799 110.768 85.7567 112.094 86.1537 113.626C86.5508 115.157 86.3583 116.782 85.6144 118.178C84.8706 119.575 83.6295 120.641 82.137 121.166C81.4647 121.403 80.7571 121.524 80.0443 121.523ZM80.0443 109.316C79.3747 109.317 78.7101 109.431 78.078 109.651C76.597 110.172 75.3833 111.26 74.7039 112.675C74.0245 114.09 73.9349 115.717 74.455 117.198C74.8154 118.221 75.4501 119.125 76.2896 119.812C77.1291 120.498 78.1412 120.941 79.2153 121.091C80.2893 121.242 81.384 121.094 82.3797 120.664C83.3754 120.234 84.2338 119.539 84.8611 118.654C85.4884 117.769 85.8605 116.729 85.9367 115.648C86.0128 114.566 85.7902 113.484 85.293 112.52C84.7958 111.556 84.0433 110.747 83.1176 110.182C82.192 109.617 81.1288 109.317 80.0443 109.316Z" fill="white"/>
<path d="M65.2558 120.416C65.6577 121.553 66.3877 122.546 67.3535 123.269C68.3193 123.992 69.4776 124.412 70.6822 124.477C71.8868 124.542 73.0836 124.249 74.1216 123.634C75.1595 123.019 75.992 122.111 76.5139 121.023C77.0358 119.936 77.2237 118.718 77.0539 117.523C76.8841 116.329 76.3642 115.212 75.5599 114.313C74.7555 113.414 73.7028 112.773 72.5347 112.472C71.3665 112.171 70.1353 112.223 68.9966 112.621C68.2383 112.886 67.5398 113.298 66.9411 113.833C66.3425 114.369 65.8554 115.018 65.5079 115.742C65.1604 116.466 64.9592 117.252 64.916 118.054C64.8727 118.856 64.9882 119.659 65.2558 120.416Z" fill="#DEDEDE"/>
<path opacity="0.8" d="M65.2558 120.416C65.6577 121.553 66.3877 122.546 67.3535 123.269C68.3193 123.992 69.4776 124.412 70.6822 124.477C71.8868 124.542 73.0836 124.249 74.1216 123.634C75.1595 123.019 75.992 122.111 76.5139 121.023C77.0358 119.936 77.2237 118.718 77.0539 117.523C76.8841 116.329 76.3642 115.212 75.5599 114.313C74.7555 113.414 73.7028 112.773 72.5347 112.472C71.3665 112.171 70.1353 112.223 68.9966 112.621C68.2383 112.886 67.5398 113.298 66.9411 113.833C66.3425 114.369 65.8554 115.018 65.5079 115.742C65.1604 116.466 64.9592 117.252 64.916 118.054C64.8727 118.856 64.9882 119.659 65.2558 120.416Z" fill="white"/>
</g>
<defs>
<clipPath id="clip0_14:1366">
<rect width="187" height="187" fill="white"/>
</clipPath>
</defs>
</svg>
